<svg width="24" height="24" viewBox="0 0 24 24" fill="none" xmlns="http://www.w3.org/2000/svg">
<g id="AlertTriangle">
<path id="Vector" fill-rule="evenodd" clip-rule="evenodd" d="M9.96388 6.10986L4.30717 16.3099C4.29904 16.3245 4.29054 16.339 4.28168 16.3532C4.01052 16.789 3.9653 17.1008 4.02204 17.294C4.30983 18.274 5.23024 19 6.32997 19H17.6698C18.7696 19 19.69 18.274 19.9778 17.294C20.0345 17.1008 19.9893 16.789 19.7181 16.3532C19.7092 16.339 19.7008 16.3245 19.6926 16.3099L14.0359 6.10986C13.096 4.63005 10.9038 4.63005 9.96388 6.10986ZM8.25355 5.07268C9.97331 2.3091 14.0265 2.30911 15.7462 5.07268C15.7551 5.08692 15.7636 5.10137 15.7717 5.11604L21.4301 15.3191C21.8141 15.9436 22.1876 16.8669 21.8967 17.8574C21.362 19.6785 19.668 21 17.6698 21H6.32997C4.33176 21 2.63781 19.6785 2.10306 17.8575C1.8122 16.8669 2.18572 15.9436 2.56964 15.3191L8.22807 5.11603C8.2362 5.10137 8.2447 5.08692 8.25355 5.07268ZM11.9999 7.41447C12.5522 7.41447 12.9999 7.86219 12.9999 8.41447V12.9C12.9999 13.4523 12.5522 13.9 11.9999 13.9C11.4476 13.9 10.9999 13.4523 10.9999 12.9V8.41447C10.9999 7.86219 11.4476 7.41447 11.9999 7.41447ZM11.9999 15.2248C12.5522 15.2248 12.9999 15.6725 12.9999 16.2248V16.2642C12.9999 16.8165 12.5522 17.2642 11.9999 17.2642C11.4476 17.2642 10.9999 16.8165 10.9999 16.2642V16.2248C10.9999 15.6725 11.4476 15.2248 11.9999 15.2248Z" fill="#9EA2B9"/>
</g>
</svg>
