<svg width="20" height="20" viewBox="0 0 20 20" fill="none" xmlns="http://www.w3.org/2000/svg">
<g id="Balance">
<path id="Vector" d="M15.25 3.3335H4.75C2.82794 3.3335 1.25 4.83051 1.25 6.66477V13.3356C1.25 15.1698 2.82794 16.6668 4.75 16.6668H15.25C17.1721 16.6668 18.75 15.1698 18.75 13.3356V6.66477C18.75 4.83051 17.1721 3.3335 15.25 3.3335ZM17.0042 11.674H15.25C14.2848 11.674 13.4958 10.9255 13.4958 10.0043C13.4958 9.08303 14.2848 8.33452 15.25 8.33452H17.0042V11.6658V11.674ZM15.25 6.673C13.3279 6.673 11.75 8.17002 11.75 10.0043C11.75 11.8385 13.3279 13.3356 15.25 13.3356H17.0042C17.0042 14.2486 16.2152 15.0053 15.25 15.0053H4.75C3.78477 15.0053 2.9958 14.2568 2.9958 13.3356V6.66477C2.9958 5.75176 3.78477 4.99502 4.75 4.99502H15.25C16.2152 4.99502 17.0042 5.74353 17.0042 6.66477H15.25V6.673Z" fill="#6D62F6"/>
</g>
</svg>
