<svg width="21" height="20" viewBox="0 0 21 20" fill="none" xmlns="http://www.w3.org/2000/svg">
<g id="Bomb2">
<path id="Vector" fill-rule="evenodd" clip-rule="evenodd" d="M18.4293 7.42591C17.9729 7.88227 17.8807 8.59063 18.205 9.1484L18.2065 9.14844L18.4462 9.56102C18.616 9.85374 18.5169 10.2294 18.2242 10.3992C17.9784 10.5421 17.6749 10.4945 17.4828 10.3032C17.4297 10.2616 17.3165 10.0611 17.2334 9.91372C17.195 9.84575 17.163 9.7891 17.1463 9.76461C16.5424 8.72652 16.7145 7.40746 17.5635 6.5585C18.089 6.03376 18.089 5.17866 17.5635 4.65315C16.9427 4.02086 15.9578 4.19988 15.4415 4.86905C15.5621 5.03345 15.6704 5.20632 15.7634 5.3861C16.0858 5.9615 15.6712 6.49585 15.3093 6.96212C15.2228 7.0736 15.1393 7.1812 15.0697 7.28453C14.7332 6.67681 14.3144 6.1321 13.8127 5.62887C13.308 5.12947 12.7702 4.70999 12.1609 4.37656L13.0014 3.76116C13.4985 3.36703 14.1339 3.64823 14.5734 4.00241C15.5505 2.83076 17.3406 2.68555 18.4293 3.78651C19.4327 4.78998 19.4327 6.42252 18.4293 7.42591ZM3.85116 15.5887C1.34584 13.0834 1.34584 9.00067 3.85116 6.49534C6.36023 3.98608 10.4392 3.99001 12.9445 6.49534C18.7297 12.7707 10.1328 21.3723 3.85116 15.5887ZM4.86531 14.0108C5.43537 14.5747 6.29432 13.7127 5.73193 13.1442L5.73272 13.1435C4.57108 11.9819 4.57108 10.0918 5.73272 8.93018C5.97088 8.69202 5.9755 8.30635 5.73272 8.06356C4.83996 7.34131 4.07705 9.1069 3.84273 9.73689C3.39404 11.2334 3.72517 12.8906 4.86531 14.0108Z" fill="#6F728D"/>
</g>
</svg>
