<svg width="40" height="40" viewBox="0 0 40 40" fill="none" xmlns="http://www.w3.org/2000/svg">
<g clip-path="url(#clip0_1791_20611)">
<path fill-rule="evenodd" clip-rule="evenodd" d="M8.33398 11.5152C8.33398 10.6366 9.04627 9.92432 9.92492 9.92432H30.0767C30.9554 9.92432 31.6676 10.6366 31.6676 11.5152C31.6676 12.3939 30.9554 13.1062 30.0767 13.1062H9.92491C9.04627 13.1062 8.33398 12.3939 8.33398 11.5152ZM8.33398 20.0003C8.33398 19.1217 9.04627 18.4094 9.92492 18.4094H30.0767C30.9554 18.4094 31.6676 19.1217 31.6676 20.0003C31.6676 20.8789 30.9554 21.5912 30.0767 21.5912H9.92491C9.04627 21.5912 8.33398 20.8789 8.33398 20.0003ZM9.92492 26.8944C9.04627 26.8944 8.33398 27.6067 8.33398 28.4854C8.33398 29.364 9.04627 30.0763 9.92491 30.0763H30.0767C30.9554 30.0763 31.6676 29.364 31.6676 28.4854C31.6676 27.6067 30.9554 26.8944 30.0767 26.8944H9.92492Z" fill="#4D506C"/>
</g>
<defs>
<clipPath id="clip0_1791_20611">
<path d="M0 20C0 12.5231 0 8.78461 1.60769 6C2.66091 4.17577 4.17577 2.66091 6 1.60769C8.78461 0 12.5231 0 20 0C27.4769 0 31.2154 0 34 1.60769C35.8242 2.66091 37.3391 4.17577 38.3923 6C40 8.78461 40 12.5231 40 20C40 27.4769 40 31.2154 38.3923 34C37.3391 35.8242 35.8242 37.3391 34 38.3923C31.2154 40 27.4769 40 20 40C12.5231 40 8.78461 40 6 38.3923C4.17577 37.3391 2.66091 35.8242 1.60769 34C0 31.2154 0 27.4769 0 20Z" fill="white"/>
</clipPath>
</defs>
</svg>
