<svg width="40" height="40" viewBox="0 0 40 40" fill="none" xmlns="http://www.w3.org/2000/svg">
<path fill-rule="evenodd" clip-rule="evenodd" d="M22 12H18C16.0578 12 14.8024 12.0042 13.8774 12.1286C13.0099 12.2452 12.738 12.4335 12.5858 12.5858C12.4335 12.738 12.2452 13.0099 12.1286 13.8774C12.0042 14.8024 12 16.0578 12 18V22C12 23.9422 12.0042 25.1976 12.1286 26.1226C12.2452 26.9901 12.4335 27.262 12.5858 27.4142C12.738 27.5665 13.0099 27.7548 13.8774 27.8714C14.8024 27.9958 16.0578 28 18 28H22C23.9422 28 25.1976 27.9958 26.1226 27.8714C26.9901 27.7548 27.262 27.5665 27.4142 27.4142C27.5665 27.262 27.7548 26.9901 27.8714 26.1226C27.9958 25.1976 28 23.9422 28 22V18C28 16.0578 27.9958 14.8024 27.8714 13.8774C27.7548 13.0099 27.5665 12.738 27.4142 12.5858C27.262 12.4335 26.9901 12.2452 26.1226 12.1286C25.1976 12.0042 23.9422 12 22 12ZM11.1716 11.1716C10 12.3431 10 14.2288 10 18V22C10 25.7712 10 27.6569 11.1716 28.8284C12.3431 30 14.2288 30 18 30H22C25.7712 30 27.6569 30 28.8284 28.8284C30 27.6569 30 25.7712 30 22V18C30 14.2288 30 12.3431 28.8284 11.1716C27.6569 10 25.7712 10 22 10H18C14.2288 10 12.3431 10 11.1716 11.1716Z" fill="#6D62F6"/>
<path fill-rule="evenodd" clip-rule="evenodd" d="M25.5053 15.6913C25.8969 16.0807 25.8987 16.7139 25.5093 17.1055L18.3498 24.3055C18.1621 24.4943 17.9069 24.6004 17.6407 24.6004C17.3745 24.6004 17.1193 24.4943 16.9316 24.3055L14.4911 21.8512C14.1017 21.4596 14.1035 20.8264 14.4951 20.437C14.8867 20.0476 15.5199 20.0494 15.9093 20.441L17.6407 22.1822L24.0911 15.6953C24.4805 15.3037 25.1137 15.3019 25.5053 15.6913Z" fill="#6D62F6"/>
</svg>
