<svg width="40" height="40" viewBox="0 0 40 40" fill="none" xmlns="http://www.w3.org/2000/svg">
<g clip-path="url(#clip0_2031_17975)">
<path fill-rule="evenodd" clip-rule="evenodd" d="M27.3043 10.4625C27.921 9.84584 28.9207 9.84584 29.5374 10.4625C30.154 11.0791 30.154 12.0789 29.5374 12.6955L22.2327 20.0002L29.5375 27.3051C30.1542 27.9218 30.1542 28.9215 29.5375 29.5382C28.9209 30.1548 27.9211 30.1548 27.3045 29.5382L19.9996 22.2333L12.6947 29.5382C12.0781 30.1548 11.0783 30.1548 10.4617 29.5382C9.84505 28.9215 9.84505 27.9218 10.4617 27.3051L17.7666 20.0002L10.4619 12.6955C9.84522 12.0789 9.84522 11.0791 10.4619 10.4625C11.0785 9.84584 12.0783 9.84584 12.6949 10.4625L19.9996 17.7672L27.3043 10.4625Z" fill="#4D506C"/>
</g>
<defs>
<clipPath id="clip0_2031_17975">
<rect width="40" height="40" rx="11" fill="white"/>
</clipPath>
</defs>
</svg>
