<svg width="24" height="24" viewBox="0 0 24 24" fill="none" xmlns="http://www.w3.org/2000/svg">
<g id="Copy">
<path id="Vector" fill-rule="evenodd" clip-rule="evenodd" d="M8 4C6.34315 4 5 5.34314 5 7L5 13.125C5 13.6773 4.55228 14.125 4 14.125C3.44771 14.125 3 13.6773 3 13.125L3 7C3 4.23858 5.23858 2 8 2L14.125 2C14.6773 2 15.125 2.44772 15.125 3C15.125 3.55229 14.6773 4 14.125 4L8 4ZM6.75 9C6.75 7.20507 8.20508 5.75 10 5.75L16.75 5.75C18.5449 5.75 20 7.20508 20 9L20 18.75C20 20.5449 18.5449 22 16.75 22L10 22C8.20507 22 6.75 20.5449 6.75 18.75L6.75 9ZM10 7.75C9.30965 7.75 8.75 8.30964 8.75 9L8.75 18.75C8.75 19.4404 9.30964 20 10 20L16.75 20C17.4404 20 18 19.4404 18 18.75L18 9C18 8.30964 17.4404 7.75 16.75 7.75L10 7.75Z" fill="#4D506C"/>
</g>
</svg>
