<svg width="20" height="20" viewBox="0 0 20 20" fill="none" xmlns="http://www.w3.org/2000/svg">
<g id="Interface">
<path id="Vector" fill-rule="evenodd" clip-rule="evenodd" d="M3.33333 10.0001C3.33333 8.47508 3.41666 7.30008 3.61666 6.40008C3.81666 5.50008 4.11666 4.92508 4.52499 4.51675C4.93333 4.10841 5.51666 3.80841 6.40833 3.60841C6.49221 3.58994 6.5783 3.57247 6.66668 3.55596L6.66692 16.4446C6.5783 16.428 6.49212 16.4104 6.40833 16.3917C5.50833 16.1917 4.93333 15.8917 4.52499 15.4834C4.11666 15.0751 3.81666 14.4917 3.61666 13.6001C3.41666 12.6917 3.33333 11.5251 3.33333 10.0001ZM8.33363 16.6325C8.83852 16.6616 9.39513 16.6751 10.0083 16.6751C11.5333 16.6751 12.7 16.5917 13.6083 16.3917C14.5 16.1917 15.0833 15.8917 15.4917 15.4834C15.9 15.0751 16.2 14.5001 16.4 13.6001C16.6 12.7001 16.6833 11.5251 16.6833 10.0001C16.6833 8.47508 16.6 7.30841 16.4 6.40008C16.2 5.50841 15.9 4.92508 15.4917 4.51675C15.0833 4.10841 14.5083 3.80841 13.6083 3.60841C12.7083 3.40841 11.5333 3.32508 10.0083 3.32508C9.39405 3.32508 8.83791 3.3386 8.33337 3.36782L8.33363 16.6325ZM9.99999 1.66675C8.43333 1.66675 7.12499 1.75008 6.04166 1.99175C4.94999 2.24175 4.04166 2.65008 3.34166 3.35008C2.64166 4.05008 2.22499 4.95842 1.98333 6.05008C1.74166 7.13342 1.65833 8.44175 1.65833 10.0084C1.65833 11.5751 1.74166 12.8834 1.98333 13.9667C2.23333 15.0584 2.64166 15.9667 3.34166 16.6667C4.04166 17.3667 4.94999 17.7834 6.04166 18.0251C7.12499 18.2667 8.43333 18.3501 9.99999 18.3501C11.5667 18.3501 12.875 18.2667 13.9583 18.0251C15.05 17.7751 15.9583 17.3667 16.6583 16.6667C17.3583 15.9667 17.775 15.0584 18.0167 13.9667C18.2583 12.8834 18.3417 11.5751 18.3417 10.0084C18.3417 8.44175 18.2583 7.13342 18.0167 6.05008C17.7667 4.95842 17.3583 4.05008 16.6583 3.35008C15.9583 2.65008 15.05 2.23341 13.9583 1.99175C12.875 1.75008 11.5667 1.66675 9.99999 1.66675Z" fill="#E5E6ED"/>
</g>
</svg>
