<svg width="22" height="22" viewBox="0 0 22 22" fill="none" xmlns="http://www.w3.org/2000/svg">
<g id="Shield">
<path id="Vector" fill-rule="evenodd" clip-rule="evenodd" d="M10.4062 1.50149C10.7486 1.21044 11.2514 1.21044 11.5938 1.50149C12.7594 2.49252 13.6503 2.96361 14.5089 3.20576C15.3905 3.45437 16.3038 3.4832 17.6 3.4832C18.1063 3.4832 18.5167 3.89361 18.5167 4.39987V12.8589C18.5167 13.8134 18.3496 14.6411 17.9935 15.3855C17.6387 16.1272 17.1216 16.733 16.4974 17.2786C15.8806 17.8177 15.1369 18.3166 14.3116 18.8341C13.9176 19.0811 13.5354 19.3141 13.1356 19.5578L13.1353 19.558L13.1352 19.5581C12.6336 19.8639 12.1044 20.1866 11.4895 20.5749C11.1905 20.7637 10.8095 20.7637 10.5105 20.5749C9.89559 20.1866 9.36635 19.8639 8.86477 19.5581L8.86439 19.5578C8.46462 19.3141 8.08242 19.0811 7.68839 18.8341C6.86311 18.3166 6.11939 17.8177 5.50257 17.2786C4.87838 16.733 4.36131 16.1272 4.00651 15.3855C3.73368 14.8151 3.5718 14.1959 3.51102 13.5082C3.48641 13.2296 3.71388 13 3.99348 13H4.82966C5.10132 13 5.31966 13.2176 5.35174 13.4874C5.40337 13.9214 5.51019 14.2804 5.66037 14.5943C5.87883 15.051 6.21467 15.4661 6.70909 15.8982C7.21087 16.3368 7.85146 16.7724 8.66222 17.2807C8.98386 17.4824 9.36323 17.7141 9.77238 17.964L9.77255 17.9641L9.77262 17.9641C10.0808 18.1524 10.4058 18.3509 10.7358 18.5547C10.8977 18.6546 11.1023 18.6546 11.2642 18.5547C11.594 18.351 11.9189 18.1525 12.227 17.9644L12.2275 17.9641C12.6367 17.7142 13.0161 17.4824 13.3378 17.2807C14.1485 16.7724 14.7891 16.3368 15.2909 15.8982C15.7853 15.4661 16.1212 15.051 16.3396 14.5943C16.5568 14.1404 16.6833 13.5921 16.6833 12.8589V5.79793C16.6833 5.52606 16.466 5.30508 16.1944 5.29239C15.4468 5.25747 14.7301 5.17297 14.0113 4.97027C13.1125 4.71678 12.2477 4.29085 11.3085 3.61032C11.1247 3.47718 10.8753 3.47718 10.6916 3.61032C9.75227 4.29085 8.88756 4.71678 7.98869 4.97027C7.26994 5.17297 6.55318 5.25747 5.80557 5.29239C5.534 5.30508 5.31667 5.52606 5.31667 5.79793V7.5C5.31667 7.77614 5.09281 8 4.81667 8H3.98334C3.7072 8 3.48334 7.77614 3.48334 7.5V4.39987C3.48334 3.89361 3.89374 3.4832 4.4 3.4832C5.69625 3.4832 6.60953 3.45437 7.49107 3.20576C8.34975 2.96361 9.24059 2.49252 10.4062 1.50149ZM11.8616 7.55547C11.562 7.2584 11.0783 7.26042 10.7813 7.55999C10.4842 7.85955 10.4862 8.34321 10.7858 8.64028L11.895 9.74023H2.59739C2.17548 9.74023 1.8335 10.0822 1.8335 10.5041C1.8335 10.926 2.17548 11.268 2.59739 11.268H11.895L10.7858 12.368C10.4862 12.665 10.4842 13.1487 10.7813 13.4483C11.0783 13.7478 11.562 13.7498 11.8616 13.4528L14.288 11.0465C14.4327 10.9031 14.514 10.7078 14.514 10.5041C14.514 10.3004 14.4327 10.1052 14.288 9.96172L11.8616 7.55547Z" fill="#6D62F6"/>
</g>
</svg>
