<svg width="20" height="20" viewBox="0 0 20 20" fill="none" xmlns="http://www.w3.org/2000/svg">
<g id="Info">
<path id="Vector" fill-rule="evenodd" clip-rule="evenodd" d="M3.33333 10.0003C3.33333 8.47532 3.41666 7.30866 3.61666 6.40032C3.81666 5.50866 4.11666 4.92533 4.52499 4.51699C4.93332 4.10866 5.50833 3.80866 6.40832 3.60866C7.30832 3.40866 8.48332 3.32533 10.0083 3.32533C11.5333 3.32533 12.7 3.40866 13.6083 3.60866C14.5 3.80866 15.0833 4.10866 15.4917 4.51699C15.9 4.92533 16.2 5.50032 16.4 6.40032C16.6 7.30032 16.6833 8.47532 16.6833 10.0003C16.6833 11.5253 16.6 12.692 16.4 13.6003C16.2 14.492 15.9 15.0753 15.4917 15.4837C15.0833 15.892 14.5083 16.192 13.6083 16.392C12.7083 16.592 11.5333 16.6753 10.0083 16.6753C8.48332 16.6753 7.31666 16.592 6.40832 16.392C5.51666 16.192 4.93332 15.892 4.52499 15.4837C4.11666 15.0753 3.81666 14.5003 3.61666 13.6003C3.41666 12.7003 3.33333 11.5253 3.33333 10.0003ZM9.99999 1.66699C8.43332 1.66699 7.12499 1.75033 6.04166 1.99199C4.94999 2.23366 4.04166 2.65033 3.34166 3.35033C2.64166 4.05033 2.23333 4.95866 1.98333 6.05033C1.74166 7.13366 1.65833 8.44199 1.65833 10.0087C1.65833 11.5753 1.74166 12.8837 1.98333 13.967C2.22499 15.0587 2.64166 15.967 3.34166 16.667C4.04166 17.367 4.94999 17.7753 6.04166 18.0253C7.12499 18.267 8.43332 18.3503 9.99999 18.3503C11.5667 18.3503 12.875 18.267 13.9583 18.0253C15.05 17.7837 15.9583 17.367 16.6583 16.667C17.3583 15.967 17.7667 15.0587 18.0167 13.967C18.2583 12.8837 18.3417 11.5753 18.3417 10.0087C18.3417 8.44199 18.2583 7.13366 18.0167 6.05033C17.775 4.95866 17.3583 4.05033 16.6583 3.35033C15.9583 2.65033 15.05 2.24199 13.9583 1.99199C12.875 1.75033 11.5667 1.66699 9.99999 1.66699ZM10.4083 7.05866C10.8667 7.05866 11.2417 6.68366 11.2417 6.22532C11.2417 5.76699 10.8667 5.39199 10.4083 5.39199C9.94999 5.39199 9.57499 5.76699 9.57499 6.22532C9.57499 6.68366 9.94999 7.05866 10.4083 7.05866ZM11.1417 8.39199C11.0083 8.10032 10.7167 7.89199 10.375 7.89199H9.08332C8.62499 7.89199 8.24999 8.26699 8.24999 8.72533C8.24999 9.18366 8.62499 9.55866 9.08332 9.55866H9.57499V12.5503H8.96666C8.50832 12.5503 8.13332 12.9253 8.13332 13.3837C8.13332 13.842 8.50832 14.217 8.96666 14.217H11.8583C12.3167 14.217 12.6917 13.842 12.6917 13.3837C12.6917 12.9253 12.3167 12.5503 11.8583 12.5503H11.25V8.79199C11.25 8.64199 11.2083 8.50866 11.1417 8.38366V8.39199Z" fill="#E5E6ED"/>
</g>
</svg>
