<svg width="16" height="16" viewBox="0 0 16 16" fill="none" xmlns="http://www.w3.org/2000/svg">
<g id="Info">
<path id="Vector" d="M8.00002 2.66699C5.05484 2.66699 2.66669 5.05514 2.66669 8.00033C2.66669 10.9455 5.05484 13.3337 8.00002 13.3337C10.9452 13.3337 13.3334 10.9455 13.3334 8.00033C13.3334 5.05514 10.9452 2.66699 8.00002 2.66699ZM7.92891 10.5544C7.92891 10.5544 7.98817 10.5959 8.0178 10.5959C8.07113 10.5959 8.12446 10.5722 8.1778 10.5307C8.32002 10.4181 8.48595 10.2166 8.68743 9.92625L8.84743 10.0151C8.37335 10.8092 7.86965 11.2063 7.33632 11.2063C7.13483 11.2063 6.96891 11.1529 6.84446 11.0463C6.72595 10.9337 6.66669 10.7974 6.66669 10.6255C6.66669 10.5129 6.69632 10.3707 6.74965 10.1988L7.40743 8.03588C7.47261 7.82847 7.50224 7.66847 7.50224 7.56773C7.50224 7.50255 7.47261 7.44329 7.41335 7.38995C7.35409 7.33662 7.27113 7.31292 7.17039 7.31292C7.12298 7.31292 7.06965 7.31292 6.99854 7.31292L7.0578 7.12921L8.6578 6.88033H8.94224L7.97632 10.0981C7.92298 10.2818 7.89335 10.4003 7.89335 10.4596C7.89335 10.4951 7.90521 10.5248 7.93483 10.5544H7.92891ZM9.13187 5.9381C8.99558 6.06847 8.83558 6.13366 8.64002 6.13366C8.44446 6.13366 8.29039 6.06847 8.15409 5.9381C8.0178 5.80773 7.95261 5.65366 7.95261 5.46995C7.95261 5.28625 8.0178 5.13218 8.14817 5.00181C8.28446 4.87144 8.44446 4.80625 8.64002 4.80625C8.83558 4.80625 8.99558 4.87144 9.13187 5.00181C9.26817 5.13218 9.33335 5.28625 9.33335 5.46995C9.33335 5.65366 9.26817 5.81366 9.13187 5.9381Z" fill="#393C59"/>
</g>
</svg>
