<svg width="102" height="64" viewBox="0 0 102 64" fill="none" xmlns="http://www.w3.org/2000/svg">
<path d="M36.267 20.5673C39.7837 20.5673 42.6345 17.7451 42.6345 14.2636C42.6345 10.7822 39.7837 7.95996 36.267 7.95996C32.7503 7.95996 29.8994 10.7822 29.8994 14.2636C29.8994 17.7451 32.7503 20.5673 36.267 20.5673Z" fill="url(#paint0_radial_5792_26378)"/>
<path d="M42.5045 10.8643C43.3996 12.1189 43.9256 13.6501 43.9256 15.3029C43.9256 19.5569 40.4421 23.0056 36.1448 23.0056C31.8475 23.0056 28.5124 19.7018 28.369 15.5727C28.3659 15.6631 28.3643 15.7541 28.3643 15.8452C28.3643 20.2001 31.9304 23.7305 36.3295 23.7305C40.7286 23.7305 44.2947 20.2001 44.2947 15.8452C44.2947 13.956 43.6235 12.2222 42.5045 10.8643Z" fill="#7A60FF"/>
<path d="M34.7933 13.061C35.94 12.4103 36.4911 11.2292 36.0243 10.4229C35.5574 9.61659 34.2494 9.49045 33.1027 10.1411C31.956 10.7918 31.4048 11.973 31.8717 12.7793C32.3385 13.5856 33.6466 13.7117 34.7933 13.061Z" fill="#AD9DFF"/>
<path d="M49.4684 7.44238C46.5103 7.44238 43.6529 7.90085 40.9844 8.7392C42.9984 10.0098 44.4963 12.0664 45.1005 14.5029C46.5103 14.1885 47.9705 14.0051 49.481 14.0051C54.6545 14.0051 59.3622 16.0093 62.8616 19.2448L63.5036 19.2186V19.6508L64.4602 19.5984C65.4672 19.546 66.4868 19.4806 67.5064 19.4282L71.1442 19.2186H72.4785C67.3554 12.1057 58.9594 7.44238 49.4684 7.44238Z" fill="url(#paint1_radial_5792_26378)"/>
<path d="M31.5307 25.1917C31.4426 25.1393 31.3419 25.1655 31.3041 25.2572C30.3097 27.733 29.7559 30.4314 29.7559 33.2609V33.4311C29.781 30.5624 30.4482 27.8509 31.6062 25.4144C31.644 25.3358 31.6062 25.2441 31.5433 25.1917H31.5307Z" fill="black"/>
<path d="M50.6888 15.8129C48.8258 15.8129 47.051 16.1273 45.3769 16.6906V16.887C45.3769 17.3848 45.3265 17.8826 45.251 18.3541C47.3405 17.3717 49.6818 16.7953 52.149 16.7953C55.5476 16.7953 58.6945 17.8302 61.3001 19.6117C58.4176 17.2407 54.7168 15.7998 50.6762 15.7998H50.6888V15.8129Z" fill="#7A60FF"/>
<path d="M50.0591 14.4506C48.385 14.4506 46.7612 14.6864 45.2129 15.0925C45.2507 15.3282 45.2884 15.5771 45.3136 15.8129C47.0381 15.302 48.8633 15.0139 50.764 15.0139C55.1193 15.0139 59.1222 16.481 62.3068 18.9305C59.0089 16.1273 54.7291 14.4375 50.0465 14.4375L50.0591 14.4506Z" fill="#7A60FF"/>
<path d="M31.5307 25.1917C31.4426 25.1393 31.3419 25.1655 31.3041 25.2572C30.3097 27.733 29.7559 30.4314 29.7559 33.2609V33.4311C29.781 30.5624 30.4482 27.8509 31.6062 25.4144C31.644 25.3358 31.6062 25.2441 31.5433 25.1917H31.5307Z" fill="url(#paint2_linear_5792_26378)" fill-opacity="0.73"/>
<path d="M31.8709 33.7985C31.8709 31.2311 32.4122 28.7946 33.3563 26.5809C33.457 26.3451 33.3311 26.0569 33.0919 25.9652C32.8779 25.8866 32.6513 25.9783 32.5632 26.201C31.6695 28.3755 31.166 30.7464 31.166 33.2353C31.166 39.2216 34.0234 44.553 38.4542 47.9719C34.4262 44.553 31.8709 39.4836 31.8709 33.8116V33.7985Z" fill="url(#paint3_linear_5792_26378)" fill-opacity="0.58"/>
<path d="M51.6959 11.4647C49.1532 11.4647 46.7238 11.9231 44.458 12.7091C44.7223 13.2855 44.9363 13.8749 45.0874 14.5037C46.4972 14.1893 47.9574 13.9928 49.4679 13.9928C54.6414 13.9928 59.3491 15.997 62.8485 19.2325L63.2527 19.6386H63.4904L64.4471 19.5862C65.4541 19.5338 66.4737 19.4683 67.4933 19.4159L68.601 19.3504C64.5855 14.5299 58.5057 11.4385 51.7085 11.4385L51.6959 11.4647Z" fill="url(#paint4_radial_5792_26378)"/>
<path d="M43.2244 10.7299C45.4398 10.1142 47.7685 9.77367 50.1854 9.77367C54.1127 9.77367 57.8386 10.6382 61.1869 12.1839C57.5868 10.3762 53.5337 9.35449 49.2287 9.35449C46.9755 9.35449 44.823 9.66887 42.7461 10.1797C42.9097 10.35 43.0734 10.5334 43.2244 10.7299Z" fill="#7A60FF"/>
<path d="M31.2959 55.9218C31.1305 55.9252 30.974 55.9294 30.8254 55.9352C30.6769 55.941 30.5364 55.9481 30.4034 55.9571C30.2704 55.9661 30.1449 55.9771 30.0262 55.9905C29.9076 56.0038 29.7957 56.0195 29.6898 56.0382C29.584 56.0568 29.4845 56.0783 29.3903 56.1032C29.2961 56.1279 29.2077 56.1562 29.1239 56.188C29.0402 56.2201 28.9613 56.2557 28.8867 56.2957C28.812 56.3357 28.7417 56.38 28.6748 56.4291C28.608 56.4782 28.5448 56.532 28.4843 56.5912C28.4239 56.6503 28.3666 56.7147 28.3113 56.7847C28.2562 56.8548 28.2032 56.9305 28.1519 57.0124C28.1005 57.0944 28.0509 57.1825 28.0022 57.2774C27.9535 57.3721 27.9057 57.4735 27.8584 57.5823C27.811 57.6908 27.7641 57.8066 27.7166 57.93C27.669 58.0534 27.6215 58.1843 27.573 58.3234C27.5244 58.4624 27.4747 58.6095 27.4235 58.7654C27.4201 58.6016 27.4158 58.4466 27.41 58.2996C27.4042 58.1525 27.3969 58.0135 27.3879 57.8818C27.3788 57.7502 27.3676 57.6259 27.3542 57.5084C27.3407 57.391 27.3248 57.2802 27.3059 57.1754C27.2871 57.0706 27.2655 56.9721 27.2403 56.8788C27.2154 56.7857 27.1868 56.6981 27.1546 56.6151C27.1225 56.5321 27.0863 56.4542 27.0458 56.3803C27.0054 56.3064 26.9606 56.2368 26.911 56.1706C26.8614 56.1044 26.8071 56.0418 26.7473 55.982C26.6876 55.9222 26.6226 55.8654 26.5519 55.8107C26.4811 55.7561 26.4046 55.7037 26.3218 55.6529C26.2391 55.6021 26.1501 55.5529 26.0542 55.5047C25.9585 55.4565 25.856 55.4092 25.7462 55.3624C25.6366 55.3154 25.5196 55.269 25.3949 55.222C25.2703 55.1751 25.138 55.1278 24.9976 55.0798C24.8572 55.0317 24.7086 54.9825 24.5511 54.9318C24.7165 54.9284 24.8731 54.9242 25.0216 54.9184C25.1702 54.9127 25.3106 54.9055 25.4436 54.8965C25.5766 54.8875 25.7022 54.8765 25.8208 54.8632C25.9394 54.8498 26.0514 54.8341 26.1572 54.8154C26.2631 54.7968 26.3626 54.7754 26.4568 54.7505C26.5509 54.7258 26.6394 54.6974 26.7232 54.6656C26.8069 54.6336 26.8857 54.5979 26.9604 54.5579C27.0351 54.5179 27.1053 54.4736 27.1722 54.4245C27.2391 54.3754 27.3023 54.3216 27.3627 54.2624C27.4231 54.2033 27.4805 54.139 27.5358 54.0689C27.5909 53.9989 27.6439 53.9231 27.6952 53.8412C27.7465 53.7592 27.7961 53.6711 27.8449 53.5762C27.8935 53.4815 27.9413 53.3801 27.9886 53.2713C28.036 53.1628 28.0829 53.047 28.1305 52.9236C28.1778 52.8002 28.2255 52.6693 28.2741 52.5302C28.3226 52.3912 28.3724 52.2441 28.4235 52.0883C28.427 52.252 28.4312 52.407 28.4371 52.554C28.4429 52.7011 28.4501 52.8401 28.4592 52.9718C28.4683 53.1035 28.4794 53.2277 28.4929 53.3452C28.5063 53.4626 28.5223 53.5735 28.5411 53.6782C28.5599 53.783 28.5816 53.8815 28.6067 53.9748C28.6317 54.068 28.6603 54.1555 28.6924 54.2385C28.7246 54.3213 28.7608 54.3994 28.8012 54.4733C28.8417 54.5473 28.8864 54.6168 28.936 54.683C28.9856 54.7492 29.0399 54.8118 29.0998 54.8716C29.1594 54.9314 29.2244 54.9882 29.2951 55.0429C29.3659 55.0975 29.4425 55.15 29.5252 55.2008C29.608 55.2516 29.697 55.3007 29.7928 55.3489C29.8885 55.3971 29.991 55.4444 30.1009 55.4912C30.2105 55.5382 30.3274 55.5848 30.4521 55.6317C30.5768 55.6785 30.709 55.7258 30.8494 55.7738C30.9899 55.8219 31.1385 55.8711 31.2959 55.9218Z" fill="#FD4542"/>
<path d="M16.399 11.2921C16.5059 11.4172 16.6079 11.5349 16.706 11.6453C16.8041 11.7558 16.8984 11.8593 16.9893 11.9557C17.0802 12.0522 17.1679 12.1417 17.2533 12.2245C17.3386 12.3073 17.4214 12.3834 17.5027 12.4529C17.584 12.5225 17.6636 12.5854 17.7425 12.6422C17.8212 12.6988 17.8992 12.7491 17.9769 12.7933C18.0546 12.8375 18.1325 12.8756 18.2109 12.9077C18.2893 12.9399 18.3685 12.966 18.4491 12.9864C18.5298 13.0068 18.612 13.0215 18.6964 13.0307C18.7808 13.0398 18.8674 13.0434 18.9571 13.0416C19.0469 13.0398 19.1396 13.0328 19.2362 13.0206C19.3329 13.0083 19.4332 12.9909 19.5383 12.9685C19.6433 12.9461 19.7529 12.9188 19.8679 12.8868C19.9829 12.8549 20.1034 12.818 20.2298 12.7766C20.3563 12.7353 20.4891 12.6894 20.6287 12.639C20.7685 12.5888 20.9151 12.5341 21.0695 12.4753C20.9431 12.5811 20.8243 12.6821 20.7127 12.7792C20.6011 12.8764 20.4966 12.9697 20.3992 13.0597C20.3017 13.1496 20.2113 13.2365 20.1276 13.321C20.044 13.4055 19.9672 13.4875 19.8969 13.5679C19.8267 13.6484 19.7631 13.7272 19.7059 13.8051C19.6487 13.8831 19.5978 13.9603 19.5532 14.0372C19.5086 14.1141 19.4701 14.1912 19.4376 14.2689C19.4052 14.3465 19.3787 14.4249 19.3581 14.5047C19.3375 14.5845 19.3227 14.6659 19.3134 14.7495C19.3042 14.833 19.3005 14.9188 19.3024 15.0076C19.3042 15.0964 19.3113 15.1882 19.3236 15.2839C19.336 15.3796 19.3536 15.4789 19.3762 15.5829C19.3988 15.6869 19.4265 15.7953 19.4587 15.9092C19.491 16.0231 19.5283 16.1424 19.5701 16.2675C19.6118 16.3928 19.6582 16.5242 19.7091 16.6624C19.7598 16.8008 19.8151 16.9459 19.8745 17.0987C19.7676 16.9737 19.6655 16.856 19.5674 16.7455C19.4693 16.6351 19.375 16.5316 19.2842 16.4352C19.1933 16.3387 19.1056 16.2492 19.0202 16.1664C18.9348 16.0836 18.852 16.0075 18.7707 15.938C18.6894 15.8684 18.6098 15.8054 18.5309 15.7487C18.4522 15.6921 18.3743 15.6418 18.2965 15.5976C18.2188 15.5534 18.1409 15.5153 18.0625 15.4832C17.9841 15.451 17.9049 15.4248 17.8243 15.4045C17.7437 15.3841 17.6615 15.3694 17.5771 15.3602C17.4926 15.3511 17.406 15.3474 17.3163 15.3492C17.2266 15.351 17.1338 15.3581 17.0372 15.3703C16.9406 15.3825 16.8402 15.4 16.7352 15.4224C16.6301 15.4447 16.5206 15.4721 16.4055 15.5041C16.2905 15.536 16.17 15.5729 16.0436 15.6143C15.9171 15.6556 15.7843 15.7015 15.6447 15.7519C15.505 15.8021 15.3584 15.8568 15.204 15.9156C15.3303 15.8098 15.4491 15.7087 15.5607 15.6116C15.6724 15.5145 15.7768 15.4212 15.8743 15.3312C15.9717 15.2412 16.0622 15.1544 16.1458 15.0699C16.2294 14.9854 16.3063 14.9034 16.3765 14.8229C16.4468 14.7425 16.5104 14.6637 16.5677 14.5856C16.6248 14.5077 16.6757 14.4305 16.7204 14.3535C16.765 14.2766 16.8034 14.1995 16.8359 14.1219C16.8684 14.0442 16.8948 13.9658 16.9154 13.886C16.936 13.8062 16.9509 13.7248 16.9601 13.6413C16.9694 13.5577 16.973 13.4719 16.9712 13.3831C16.9694 13.2943 16.9622 13.2025 16.9499 13.1068C16.9376 13.0112 16.9199 12.9118 16.8973 12.8078C16.8747 12.7038 16.8471 12.5954 16.8148 12.4815C16.7825 12.3676 16.7453 12.2483 16.7035 12.1232C16.6618 11.9979 16.6154 11.8665 16.5645 11.7283C16.5137 11.5899 16.4585 11.4448 16.3991 11.292L16.399 11.2921Z" fill="url(#paint5_linear_5792_26378)"/>
<path d="M65.2194 3.67895C65.0984 3.65445 64.9837 3.6321 64.8746 3.61218C64.7656 3.59226 64.662 3.57476 64.5638 3.55968C64.4656 3.54461 64.3724 3.53222 64.2837 3.5228C64.1951 3.51338 64.1111 3.50665 64.0308 3.50288C63.9506 3.49938 63.8747 3.49884 63.8021 3.50153C63.7295 3.50423 63.6605 3.51042 63.5941 3.52011C63.5278 3.5298 63.4644 3.54299 63.4035 3.55995C63.3426 3.57691 63.2839 3.59791 63.227 3.62268C63.1702 3.64745 63.1153 3.67652 63.0614 3.70964C63.0076 3.74275 62.9551 3.78044 62.9034 3.82244C62.8518 3.86444 62.8006 3.91101 62.7495 3.96243C62.6987 4.01385 62.6478 4.06985 62.5967 4.13096C62.5456 4.19207 62.4939 4.2583 62.4414 4.32964C62.3889 4.40098 62.3354 4.47771 62.2804 4.55982C62.2255 4.64193 62.1692 4.72943 62.1108 4.82285C62.0523 4.91626 61.9916 5.01533 61.9286 5.12033C61.9533 5.00053 61.9759 4.88692 61.996 4.77896C62.0161 4.67101 62.0338 4.56844 62.049 4.47125C62.0643 4.37379 62.0768 4.28172 62.0863 4.19396C62.0958 4.10619 62.1026 4.02301 62.1064 3.94359C62.1099 3.86417 62.1105 3.78906 62.1078 3.71718C62.105 3.6453 62.0988 3.57691 62.089 3.51123C62.0792 3.44554 62.0659 3.38281 62.0488 3.32251C62.0316 3.2622 62.0104 3.20405 61.9854 3.14778C61.9604 3.09152 61.931 3.03714 61.8976 2.98383C61.8641 2.93053 61.826 2.87857 61.7836 2.82742C61.7412 2.77627 61.6942 2.72565 61.6422 2.67504C61.5903 2.6247 61.5337 2.57436 61.472 2.52374C61.4103 2.47313 61.3434 2.42198 61.2713 2.37002C61.1992 2.31806 61.1218 2.26503 61.0388 2.21064C60.9559 2.15626 60.8675 2.10054 60.7731 2.04265C60.6788 1.98477 60.5787 1.92474 60.4727 1.86228C60.5937 1.88678 60.7084 1.90912 60.8175 1.92905C60.9265 1.94897 61.0301 1.96647 61.1283 1.98154C61.2267 1.99662 61.3197 2.009 61.4084 2.01842C61.497 2.02785 61.581 2.03458 61.6613 2.03835C61.7415 2.04185 61.8173 2.04238 61.8899 2.03969C61.9625 2.037 62.0316 2.03081 62.098 2.02112C62.1643 2.01142 62.2277 1.99823 62.2886 1.98127C62.3495 1.96431 62.4082 1.94331 62.4651 1.91855C62.5219 1.89378 62.5768 1.8647 62.6307 1.83159C62.6845 1.79848 62.737 1.76079 62.7887 1.71879C62.8403 1.67679 62.8915 1.63022 62.9426 1.5788C62.9937 1.52738 63.0443 1.47138 63.0954 1.41027C63.1465 1.34915 63.1982 1.28293 63.2507 1.21159C63.3032 1.14024 63.3567 1.06352 63.4117 0.981406C63.4666 0.899295 63.5229 0.8118 63.5816 0.718382C63.6401 0.624964 63.7007 0.525893 63.7638 0.420898C63.7391 0.540699 63.7165 0.654308 63.6964 0.762264C63.6762 0.87022 63.6586 0.972791 63.6433 1.06998C63.6281 1.16716 63.6156 1.25951 63.6061 1.34727C63.5966 1.43503 63.5898 1.51822 63.586 1.59764C63.5824 1.67706 63.5819 1.75217 63.5846 1.82405C63.5873 1.89593 63.5936 1.96431 63.6034 2.03C63.6132 2.09569 63.6265 2.15842 63.6436 2.21872C63.6607 2.27903 63.682 2.33718 63.707 2.39344C63.732 2.44971 63.7614 2.50409 63.7948 2.55739C63.8282 2.6107 63.8663 2.66266 63.9087 2.71381C63.9512 2.76496 63.9982 2.81557 64.0501 2.86619C64.1021 2.91653 64.1586 2.96687 64.2204 3.01748C64.2821 3.0681 64.349 3.11925 64.4211 3.17121C64.4931 3.22316 64.5706 3.2762 64.6536 3.33058C64.7365 3.38496 64.8249 3.44069 64.9192 3.49884C65.0136 3.55672 65.1137 3.61676 65.2197 3.67922L65.2194 3.67895Z" fill="#FD4542"/>
<path d="M77.4964 56.8656C77.2683 56.9512 77.0539 57.0321 76.853 57.1097C76.652 57.1871 76.4645 57.2611 76.2896 57.3328C76.1146 57.4045 75.9525 57.4735 75.8024 57.5417C75.6524 57.6098 75.5144 57.6767 75.3881 57.7436C75.2617 57.8106 75.1469 57.8773 75.043 57.9454C74.9391 58.0133 74.8464 58.0824 74.7637 58.1539C74.6812 58.2252 74.6089 58.2989 74.5466 58.3759C74.4842 58.453 74.4316 58.5335 74.3883 58.6186C74.3449 58.7036 74.3106 58.7934 74.2849 58.8889C74.2593 58.9844 74.2421 59.0856 74.2332 59.1937C74.224 59.3018 74.223 59.4168 74.2293 59.5398C74.2357 59.6628 74.2494 59.7941 74.2699 59.9345C74.2905 60.0748 74.3179 60.2244 74.3515 60.3844C74.3851 60.5445 74.4249 60.7149 74.4704 60.8967C74.5158 61.0785 74.5669 61.272 74.623 61.4781C74.6791 61.6841 74.7404 61.903 74.8059 62.1356C74.7194 61.9099 74.6377 61.6976 74.5594 61.4987C74.4812 61.2998 74.4065 61.1141 74.334 60.9409C74.2616 60.7678 74.1919 60.6073 74.123 60.4587C74.0542 60.3102 73.9866 60.1736 73.919 60.0485C73.8514 59.9234 73.784 59.8098 73.7152 59.7069C73.6464 59.6041 73.5768 59.5122 73.5046 59.4304C73.4325 59.3487 73.3581 59.2772 73.2804 59.2155C73.2025 59.1537 73.1211 59.1017 73.0352 59.0587C72.9493 59.0158 72.8587 58.9818 72.7622 58.9565C72.6657 58.9311 72.5634 58.9141 72.4543 58.9052C72.3451 58.8961 72.2289 58.8951 72.1046 58.9014C71.9804 58.9077 71.8478 58.9213 71.706 58.9416C71.5642 58.9619 71.4131 58.9891 71.2514 59.0223C71.0898 59.0556 70.9177 59.095 70.734 59.14C70.5504 59.185 70.3549 59.2356 70.1468 59.2911C69.9386 59.3466 69.7175 59.4073 69.4825 59.4722C69.7106 59.3866 69.925 59.3057 70.1259 59.2281C70.3268 59.1507 70.5144 59.0768 70.6893 59.0051C70.8642 58.9333 71.0263 58.8643 71.1765 58.7961C71.3265 58.728 71.4644 58.6611 71.5908 58.5942C71.7171 58.5273 71.832 58.4605 71.9358 58.3924C72.0398 58.3245 72.1325 58.2554 72.2152 58.1839C72.2976 58.1126 72.3699 58.0389 72.4322 57.9619C72.4947 57.8848 72.5472 57.8043 72.5906 57.7193C72.634 57.6342 72.6683 57.5445 72.6939 57.449C72.7195 57.3535 72.7367 57.2522 72.7457 57.1442C72.7548 57.036 72.7559 56.921 72.7496 56.798C72.7432 56.675 72.7295 56.5437 72.7089 56.4034C72.6884 56.263 72.6609 56.1134 72.6274 55.9534C72.5938 55.7933 72.554 55.623 72.5085 55.4412C72.463 55.2593 72.4119 55.0658 72.3559 54.8598C72.2998 54.6537 72.2385 54.4348 72.1729 54.2022C72.2594 54.428 72.3411 54.6402 72.4195 54.8391C72.4977 55.0381 72.5724 55.2237 72.6448 55.3969C72.7173 55.5701 72.787 55.7305 72.8559 55.8792C72.9247 56.0276 72.9923 56.1642 73.0599 56.2893C73.1274 56.4144 73.1949 56.5281 73.2636 56.6309C73.3323 56.7338 73.402 56.8256 73.4742 56.9074C73.5463 56.9891 73.6208 57.0607 73.6985 57.1223C73.7764 57.1841 73.8577 57.2362 73.9437 57.2791C74.0296 57.3221 74.1202 57.356 74.2167 57.3814C74.3132 57.4067 74.4154 57.4238 74.5246 57.4327C74.6338 57.4417 74.75 57.4428 74.8742 57.4365C74.9985 57.4302 75.1311 57.4166 75.2729 57.3962C75.4147 57.3759 75.5657 57.3487 75.7274 57.3155C75.8891 57.2823 76.0612 57.2428 76.2448 57.1978C76.4285 57.1528 76.624 57.1022 76.8321 57.0467C77.0402 56.9912 77.2613 56.9305 77.4964 56.8656Z" fill="url(#paint6_linear_5792_26378)"/>
<path d="M89.9831 12.8207C89.5198 12.6464 89.0838 12.4835 88.6728 12.3329C88.2618 12.1825 87.876 12.0445 87.5126 11.9198C87.1493 11.7953 86.8085 11.684 86.4876 11.5872C86.1668 11.4904 85.866 11.4081 85.583 11.341C85.2998 11.2739 85.0342 11.2223 84.7839 11.187C84.5336 11.1516 84.2982 11.1325 84.0755 11.1309C83.8527 11.1293 83.6428 11.1448 83.4429 11.1787C83.2431 11.2127 83.0534 11.2647 82.8715 11.3362C82.6895 11.4075 82.5152 11.4982 82.3463 11.6089C82.1773 11.7198 82.0134 11.8507 81.8523 12.0029C81.6912 12.1552 81.533 12.3285 81.3749 12.5241C81.2169 12.7197 81.0591 12.9374 80.8992 13.1782C80.7394 13.419 80.5771 13.6829 80.4103 13.9709C80.2436 14.2589 80.0721 14.5709 79.8934 14.9081C79.7149 15.2453 79.5291 15.6074 79.3337 15.9956C79.1383 16.3838 78.9335 16.7982 78.7164 17.2394C78.8925 16.7807 79.057 16.3491 79.2091 15.9422C79.3611 15.5353 79.5005 15.1534 79.6264 14.7937C79.7522 14.434 79.8646 14.0966 79.9624 13.7789C80.0602 13.4614 80.1433 13.1635 80.2111 12.8834C80.2788 12.603 80.331 12.3401 80.3667 12.0923C80.4024 11.8445 80.4217 11.6115 80.4233 11.391C80.4249 11.1705 80.4093 10.9626 80.375 10.7648C80.3407 10.567 80.2882 10.3792 80.216 10.1991C80.1439 10.0189 80.0523 9.84641 79.9405 9.67912C79.8285 9.51183 79.6962 9.34956 79.5424 9.1901C79.3887 9.03064 79.2136 8.87399 79.016 8.71754C78.8184 8.5611 78.5987 8.40485 78.3553 8.2466C78.112 8.08834 77.8455 7.92768 77.5546 7.7626C77.2637 7.59751 76.9484 7.42781 76.6078 7.25088C76.2672 7.07415 75.9014 6.89019 75.5093 6.69679C75.1171 6.50339 74.6986 6.30055 74.2529 6.08566C74.7163 6.25998 75.1522 6.42286 75.5632 6.57348C75.9742 6.7239 76.3601 6.86187 76.7234 6.98659C77.0868 7.1111 77.4276 7.22236 77.7485 7.31916C78.0692 7.41596 78.3701 7.4983 78.6531 7.56538C78.9363 7.63246 79.2018 7.68407 79.4522 7.71942C79.7025 7.75476 79.9378 7.77384 80.1606 7.77545C80.3833 7.77705 80.5933 7.76159 80.7931 7.72765C80.9929 7.69371 81.1826 7.64169 81.3646 7.5702C81.5466 7.4989 81.7208 7.40813 81.8898 7.29747C82.0588 7.18661 82.2227 7.05567 82.3838 6.90344C82.5449 6.75121 82.7031 6.5779 82.8611 6.38229C83.0192 6.18668 83.177 5.96918 83.3368 5.72818C83.4967 5.48739 83.659 5.2235 83.8258 4.93551C83.9925 4.64752 84.1639 4.33543 84.3427 3.99823C84.5212 3.66104 84.707 3.29894 84.9024 2.91073C85.0977 2.52253 85.3026 2.10822 85.5197 1.66699C85.3436 2.12569 85.1791 2.55727 85.0269 2.96416C84.875 3.37104 84.7356 3.75302 84.6096 4.1127C84.4839 4.47239 84.3715 4.80979 84.2737 5.1275C84.1759 5.44501 84.0927 5.74284 84.025 6.023C83.9572 6.30336 83.9051 6.56625 83.8694 6.81407C83.8337 7.0619 83.8144 7.29486 83.8128 7.51537C83.8111 7.73588 83.8268 7.94374 83.861 8.14156C83.8953 8.33938 83.9479 8.52716 84.0201 8.7073C84.0921 8.88745 84.1838 9.05996 84.2956 9.22725C84.4076 9.39454 84.5398 9.55681 84.6936 9.71627C84.8474 9.87573 85.0225 10.0324 85.22 10.1888C85.4176 10.3453 85.6373 10.5015 85.8808 10.6598C86.124 10.818 86.3906 10.9787 86.6815 11.1438C86.9724 11.3089 87.2877 11.4786 87.6283 11.6555C87.9689 11.8322 88.3346 12.0162 88.7268 12.2096C89.1189 12.403 89.5374 12.6058 89.9831 12.8207Z" fill="url(#paint7_linear_5792_26378)"/>
<path d="M63.1512 47.9707H62.5848L62.333 48.1541C58.7204 50.9311 54.2896 52.5816 49.4937 52.5816C44.3832 52.5816 39.6754 50.7215 35.9243 47.5908L34.7159 47.617L33.155 47.6563C31.2166 47.7087 29.19 47.748 27.2389 47.8004H27.2011L26.2822 47.8266C30.9522 55.2408 38.8698 60.153 47.8699 60.153C56.87 60.153 64.6743 55.3194 69.3569 47.9707H63.1512Z" fill="url(#paint8_radial_5792_26378)"/>
<path d="M63.1512 47.9707H62.5848L62.333 48.1541C58.7204 50.9311 54.2896 52.5816 49.4937 52.5816C44.3832 52.5816 39.6754 50.7215 35.9243 47.5908L34.7159 47.617L33.155 47.6563C31.2166 47.7087 29.19 47.748 27.2389 47.8004H27.2011L26.2822 47.8266C30.9522 55.2408 38.8698 60.153 47.8699 60.153C56.87 60.153 64.6743 55.3194 69.3569 47.9707H63.1512Z" fill="url(#paint9_linear_5792_26378)"/>
<path d="M63.1512 47.9707H62.5847L62.333 48.1541C58.7204 50.9311 54.2895 52.5816 49.4937 52.5816C44.3831 52.5816 39.6753 50.7215 35.9242 47.5908L34.7158 47.617L33.155 47.6563C32.3997 47.6694 31.6193 47.6956 30.8389 47.7087C35.5592 52.5947 42.4194 55.6861 49.0027 55.6861C55.586 55.6861 61.263 52.6995 65.3037 47.9707H63.1512Z" fill="url(#paint10_linear_5792_26378)"/>
<path d="M69.1433 47.9707C64.4859 55.7254 55.5235 60.7555 45.7178 60.0089C45.9318 60.0482 46.1332 60.0744 46.3472 60.1006C55.6116 61.3319 65.518 56.0529 70.4524 47.9707H69.1433Z" fill="#7A60FF"/>
<path d="M31.858 47.6826C31.5433 47.6826 31.2161 47.6957 30.9014 47.7088C35.0427 52.5293 41.0721 55.6338 47.8694 55.7779C51.331 55.8565 54.6164 55.1492 57.587 53.8392C54.8052 54.9527 51.759 55.5421 48.5743 55.4766C41.9281 55.3326 35.9867 52.3328 31.858 47.6826Z" fill="#7A60FF"/>
<path d="M36.5806 25.26C36.2679 31.9918 35.9543 38.7242 35.6416 45.4558C37.8954 45.4319 40.1489 45.4073 42.4027 45.3834C42.6214 38.6755 42.8411 31.9676 43.0601 25.2598H36.5806V25.26Z" fill="url(#paint11_linear_5792_26378)"/>
<path d="M42.7398 35.0891C41.7086 36.8062 40.3257 38.3222 38.5239 38.5636C37.4221 38.7113 36.6657 38.3152 35.9844 38.1042C35.8705 40.5548 35.7563 43.0051 35.6426 45.4555C37.8963 45.4315 40.1499 45.407 42.4037 45.3831C42.5155 41.9516 42.6278 38.5203 42.7398 35.0889V35.0891Z" fill="url(#paint12_linear_5792_26378)"/>
<path d="M36.5808 25.2598H43.0601L42.4027 45.3834L35.6416 45.4556L36.5808 25.2598L37.1901 25.7483L36.4065 44.5551L41.6649 44.4714L42.5222 25.6914L36.5585 25.7384L36.5808 25.2598Z" fill="url(#paint13_linear_5792_26378)"/>
<path d="M37.19 25.7475C37.1565 26.552 37.0132 29.0652 37.0147 29.957C37.5175 29.1182 38.6452 28.3825 39.6079 28.2369C41.2318 27.9913 41.9479 28.7002 42.3433 29.6121C42.3504 28.5872 42.5151 26.7153 42.5222 25.6904C40.2743 25.7185 38.7214 25.7063 37.19 25.7475Z" fill="#FFD76F"/>
<path d="M18.6731 23.9689C18.1355 23.1387 17.5183 22.5539 17.064 22.1885C15.4151 20.8589 13.5665 20.5149 11.3846 20.3143C9.11855 20.1054 5.69771 19.978 1.351 20.5017C1.03564 29.1855 0.719448 37.8684 0.404297 46.5522C2.80199 46.4585 5.20051 46.3647 7.59821 46.2711V39.1494C8.4843 39.3207 9.93903 39.4875 11.6685 39.1494C12.4334 38.9995 14.5574 38.5553 16.496 36.8067C18.5216 34.9793 19.1415 32.811 19.4302 31.7466C19.6991 30.756 20.6948 27.0884 18.6731 23.9689ZM12.6623 30.2004C12.3955 31.7495 11.1828 32.5516 10.7691 32.8242C9.40225 33.7276 7.97959 33.6216 7.55071 33.5738C7.61404 31.2001 7.67652 28.8257 7.74005 26.452C9.34914 26.0771 10.826 26.3592 11.8104 27.389C12.9462 28.5772 12.6992 29.9866 12.6623 30.2002V30.2004Z" fill="url(#paint14_linear_5792_26378)"/>
<path d="M1.34375 25.4181V27.5503C1.85178 26.7566 2.7637 25.5474 4.24739 24.4704C4.63566 24.1885 6.22433 23.0729 8.55516 22.5434C11.5617 21.8605 14.7349 22.3038 16.7718 23.5227C17.2296 23.7967 18.2084 24.3824 19.0054 25.5443C19.3418 26.0347 19.5492 26.4869 19.6754 26.808C19.6069 26.4751 19.5384 26.1423 19.4699 25.8093L19.0301 24.7634L18.2147 23.4998L17.2148 22.524L15.6974 21.4571L13.1589 20.7342L10.3296 20.4603L6.77714 20.376L2.62893 20.4673L1.57954 20.7129L1.34375 25.4179V25.4181Z" fill="#FFD76F"/>
<path d="M18.3992 33.9934C17.1232 34.8087 15.2768 35.7558 12.9108 36.2678C7.2364 37.4956 2.57078 35.3545 0.976693 34.5303C0.933993 34.5252 0.888793 34.5202 0.841718 34.5155C0.695911 38.5272 0.550104 42.5392 0.404297 46.5511C2.80199 46.4575 5.20051 46.3637 7.59821 46.2701V39.1483C8.4843 39.3197 9.93903 39.4865 11.6685 39.1483C12.4334 38.9984 14.5574 38.5542 16.496 36.8056C17.4171 35.9748 18.0474 35.0733 18.4883 34.2373C18.451 34.1326 18.4206 34.0503 18.399 33.9932L18.3992 33.9934Z" fill="url(#paint15_linear_5792_26378)"/>
<path d="M18.6731 23.9689C18.1355 23.1387 17.5183 22.5539 17.064 22.1885C15.4151 20.8589 13.5665 20.5149 11.3846 20.3143C9.11855 20.1054 5.69772 19.978 1.351 20.5017C1.03564 29.1855 0.719448 37.8684 0.404297 46.5522C2.80199 46.4585 5.20051 46.3647 7.59821 46.2711V45.2135C5.28092 45.3009 3.26191 45.4055 0.944616 45.4927C1.24935 37.3981 1.46244 29.0253 1.76718 20.9307C5.96808 20.4424 9.27436 20.5611 11.4646 20.756C13.5734 20.9428 15.3599 21.2635 16.9536 22.503C17.3927 22.8436 17.9892 23.3886 18.5087 24.1625C20.4628 27.0704 19.5004 30.4891 19.2407 31.4125C18.9616 32.4048 18.3625 34.426 16.4047 36.1293C14.5311 37.7591 12.4782 38.1732 11.7391 38.313C10.0678 38.6283 8.42931 38.1922 7.5855 37.9746L7.59841 39.1496C8.4845 39.3209 9.93924 39.4878 11.6687 39.1496C12.4336 38.9997 14.5576 38.5555 16.4962 36.8069C18.5219 34.9795 19.1417 32.8112 19.4304 31.7468C19.6994 30.7562 20.695 27.0886 18.6733 23.9691L18.6731 23.9689Z" fill="url(#paint16_linear_5792_26378)"/>
<path d="M21.8442 21.1122C24.0525 21.0496 26.2617 20.9877 28.4701 20.9248L27.902 39.4788C29.6059 39.4161 31.3098 39.3543 33.0136 39.2914C32.9503 41.5402 32.8878 43.7893 32.8243 46.0382L20.8975 46.3193C21.2126 37.9166 21.5288 29.5149 21.844 21.112L21.8442 21.1122Z" fill="url(#paint17_linear_5792_26378)"/>
<path d="M27.9982 36.3669C26.411 37.1398 23.8587 36.8156 21.3154 35.2148C21.1763 38.9162 21.0374 42.6174 20.8984 46.319L32.8252 46.038C32.8886 43.7891 32.9511 41.54 33.0146 39.2911C31.3107 39.3538 29.6069 39.4157 27.903 39.4786L27.9982 36.3671V36.3669Z" fill="url(#paint18_linear_5792_26378)"/>
<path d="M22.1112 21.4391C21.8612 29.2337 21.739 36.8835 21.489 44.6781C24.9884 44.6781 28.3157 44.6327 31.8151 44.6327C31.874 42.8352 31.8586 41.1293 31.9176 39.3318C32.2396 39.339 32.6916 39.2844 33.0136 39.2916C32.9545 41.4701 32.8834 43.8599 32.8243 46.0384C28.9173 46.1343 24.8047 46.2236 20.8975 46.3195C21.1847 37.9999 21.5567 29.432 21.844 21.1122C23.7455 21.0549 26.5683 20.9821 28.4698 20.9248C28.4355 22.048 27.9247 39.5149 27.9018 39.4788L27.2305 39.5027L27.7162 21.2127C27.7162 21.2127 22.5515 21.4094 22.1108 21.4391H22.1112Z" fill="url(#paint19_linear_5792_26378)"/>
<path d="M21.9346 27.6037C22.5132 26.7386 23.7611 25.9889 24.7595 26.0555C26.004 26.1386 27.1917 27.2208 27.5048 29.1795C27.5827 26.87 27.6383 23.5214 27.7164 21.2119C25.9366 21.261 22.111 21.4383 22.111 21.4383C22.111 21.4383 21.9754 25.708 21.9346 27.6039V27.6037Z" fill="#FFD76F"/>
<path d="M46.2666 20.1737C45.9192 28.9193 45.573 37.6659 45.2256 46.4116C47.2448 46.3489 49.2646 46.287 51.2835 46.2241C51.347 42.4759 51.4095 38.7275 51.473 34.9793C52.6401 39.0714 53.808 43.1628 54.9751 47.2549C57.0576 47.224 59.1402 47.1923 61.2227 47.1613C61.4433 38.3838 61.6647 29.6072 61.8853 20.8296C59.8973 20.8923 57.9098 20.9542 55.922 21.0171C55.827 25.4841 55.7324 29.9501 55.6381 34.4172C54.5331 29.6381 53.4295 24.8591 52.3249 20.0801C50.3059 20.111 48.2859 20.1428 46.2666 20.1737Z" fill="url(#paint20_linear_5792_26378)"/>
<path d="M51.472 34.9786C52.6391 39.0708 53.807 43.1621 54.9741 47.2543C57.0566 47.2233 59.1392 47.1916 61.2217 47.1607C61.2998 44.0484 61.3092 43.6766 61.3877 40.5645C55.478 40.9433 54.5844 28.055 49.2874 30.0559C47.7746 30.6273 46.6314 31.7039 45.7708 32.6481C45.5889 37.236 45.4069 41.8236 45.2246 46.4111C47.2438 46.3484 49.2637 46.2865 51.2825 46.2236C51.346 42.4754 51.4085 38.727 51.472 34.9788V34.9786Z" fill="url(#paint21_linear_5792_26378)"/>
<path d="M46.1983 21.8957L45.2256 46.4118L51.2835 46.2243L51.4728 34.9795L54.9751 47.2551L61.2227 47.1613L61.8853 20.8298L55.922 21.0173L55.9166 21.268L61.3216 21.366L60.2574 45.2721L55.4414 45.5878L50.9902 30.8145L50.7083 45.1349L45.773 45.0875L47.0761 20.9237L52.432 20.5438L52.3249 20.0801L46.2666 20.1739L46.1983 21.8957Z" fill="url(#paint22_linear_5792_26378)"/>
<path d="M47.0859 20.9219C46.944 23.2454 46.843 25.5364 46.7012 27.8601C46.7699 27.7249 47.7249 25.9938 49.8854 25.6605C52.4785 25.2605 53.9761 27.4483 54.048 27.5409C53.5283 25.2656 52.9465 22.819 52.4312 20.5439C50.3457 20.6955 48.6081 20.8149 47.0857 20.9219H47.0859Z" fill="#FFD76F"/>
<path d="M55.9158 21.2686C55.9052 23.1533 55.7919 25.73 55.7812 27.6148C55.8483 27.4999 56.5624 26.3676 57.9244 26.2662C59.3389 26.1608 60.5141 27.237 61.0072 28.4142C61.0568 26.3891 61.2713 23.3917 61.3209 21.3665C59.3496 21.3317 57.6161 21.2871 55.9158 21.2686Z" fill="#FFD76F"/>
<path d="M91.5729 19.2773C85.4449 18.7741 79.9702 24.4217 79.3447 31.8921C78.7188 39.3623 83.1788 45.8255 89.3073 46.3286C95.4354 46.8318 100.91 41.1842 101.536 33.7137C102.161 26.2435 97.701 19.7804 91.5729 19.2773ZM94.266 33.3698C93.9783 36.8097 92.0218 39.457 89.8976 39.2828C87.7734 39.1085 86.2845 36.1783 86.5722 32.7384C86.8602 29.2985 88.8168 26.6512 90.941 26.8254C93.0652 26.9997 94.5541 29.9299 94.266 33.37V33.3698Z" fill="url(#paint23_linear_5792_26378)"/>
<path d="M96.6821 37.3429C95.6834 36.0501 95.1451 34.7282 94.8543 33.6221C94.2951 37.0455 92.1371 39.5647 89.7388 39.4107C87.5979 39.2731 85.9251 37.048 85.5139 34.1062C84.6401 35.102 83.643 35.7765 82.5145 35.8689C81.2028 35.9761 80.1272 35.2629 79.3711 34.9601C80.0012 41.0568 84.0371 45.8954 89.3066 46.3283C93.5429 46.6761 97.4666 44.0846 99.6924 39.9835C98.7251 39.4169 97.6357 38.577 96.6821 37.3431V37.3429Z" fill="url(#paint24_linear_5792_26378)"/>
<path d="M83.9087 22.4016C81.0567 25.3662 80.9619 29.4404 80.9411 30.3304C80.9246 31.0354 80.9682 31.6111 81.0048 31.973C81.2635 30.7785 82.2586 26.9332 85.8231 24.5496C86.8069 23.8918 88.722 22.6113 91.3115 22.8754C91.7187 22.9171 94.5374 23.2487 96.2575 25.592C96.7414 26.251 97.0042 26.8868 97.1509 27.3295C97.5429 26.3943 97.8382 24.4843 97.1509 22.6208C96.6178 21.1757 95.5299 20.8703 95.045 20.443C94.4455 20.1871 93.6007 19.8898 92.5561 19.7166C90.8824 19.4388 89.5774 19.6256 89.2056 19.685C87.1925 20.0065 85.8381 20.8573 85.5042 21.0748C85.258 21.2353 84.604 21.6788 83.9087 22.4016Z" fill="#FFD76F"/>
<path d="M101.308 29.2838C101.308 29.2859 101.309 29.2878 101.309 29.2898C101.301 29.2459 101.292 29.2022 101.283 29.1585C101.28 29.1451 101.278 29.1319 101.275 29.1185C101.262 29.0529 101.248 28.9875 101.234 28.9224C101.231 28.9102 101.228 28.898 101.226 28.8859C101.212 28.8207 101.197 28.7555 101.182 28.6908C101.179 28.6803 101.177 28.6695 101.174 28.659C101.158 28.5914 101.142 28.524 101.125 28.4565C101.122 28.444 101.119 28.4312 101.116 28.4186C101.099 28.3526 101.082 28.287 101.064 28.2217C101.061 28.2081 101.057 28.1942 101.053 28.1806C101.036 28.1159 101.018 28.0513 101 27.987C100.996 27.9732 100.992 27.9592 100.988 27.9453C100.969 27.8812 100.951 27.8173 100.931 27.7534C100.927 27.7398 100.923 27.7262 100.919 27.7125C100.899 27.6484 100.879 27.5845 100.859 27.5208C100.855 27.5082 100.851 27.4956 100.847 27.4832C100.826 27.4187 100.805 27.3542 100.783 27.2902C100.779 27.2793 100.776 27.2684 100.772 27.2574C100.75 27.1919 100.727 27.1265 100.704 27.0615C100.7 27.0529 100.697 27.0442 100.694 27.0356C100.67 26.9683 100.645 26.9011 100.62 26.8345C100.619 26.8296 100.617 26.8244 100.615 26.8195C100.589 26.7504 100.562 26.6817 100.535 26.6135C100.535 26.6118 100.534 26.6104 100.534 26.6087C100.506 26.5398 100.479 26.4712 100.45 26.4029C100.448 26.3976 100.446 26.3922 100.444 26.3871C100.417 26.3213 100.389 26.2557 100.361 26.1905C100.358 26.1831 100.354 26.1757 100.351 26.1683C100.323 26.1045 100.295 26.041 100.267 25.9779C100.264 25.9728 100.262 25.9676 100.26 25.9627C100.26 25.9633 100.26 25.9637 100.26 25.9643C98.5643 22.2196 95.393 19.5909 91.5737 19.2773C86.9533 18.8979 82.7047 22.0153 80.6255 26.7739C80.6255 26.7743 80.6251 26.7747 80.6251 26.7751C80.4347 27.2108 80.2626 27.6604 80.1099 28.1223C80.1091 28.1252 80.1081 28.1278 80.1072 28.1307C80.0916 28.1779 80.0764 28.2252 80.0612 28.2726C80.0589 28.2798 80.0566 28.2872 80.0543 28.2945C80.0406 28.3373 80.0272 28.3804 80.0139 28.4237C80.0108 28.4339 80.0077 28.4442 80.0045 28.4543C79.9923 28.4947 79.98 28.5351 79.9679 28.5755C79.9641 28.5879 79.9606 28.6001 79.9571 28.6124C79.9456 28.651 79.9343 28.6898 79.9233 28.7285C79.9194 28.7423 79.9154 28.7562 79.9114 28.77C79.9008 28.8073 79.8904 28.8448 79.88 28.8823C79.8758 28.8972 79.8716 28.9122 79.8677 28.9271C79.8577 28.9638 79.8479 29.0005 79.8381 29.0374C79.8339 29.0531 79.8298 29.0688 79.8256 29.0844C79.816 29.1207 79.8069 29.157 79.7975 29.1933C79.7933 29.2096 79.7892 29.2257 79.7852 29.242C79.776 29.2783 79.7671 29.3146 79.7583 29.3508C79.7544 29.3671 79.7502 29.3834 79.7465 29.3999C79.7377 29.4366 79.729 29.4733 79.7204 29.51C79.7167 29.5261 79.7129 29.5422 79.7092 29.5583C79.7004 29.5966 79.6917 29.635 79.6831 29.6736C79.6798 29.688 79.6767 29.7026 79.6734 29.7171C79.6636 29.7614 79.6542 29.8057 79.6448 29.8501C79.6429 29.8589 79.6411 29.8676 79.6392 29.8763C79.6282 29.9295 79.6171 29.9827 79.6067 30.0361C79.604 30.0503 79.6013 30.0645 79.5984 30.0786C79.5913 30.115 79.584 30.1515 79.5771 30.188C79.5771 30.1876 79.5771 30.1874 79.5773 30.187C79.4721 30.7429 79.3942 31.3121 79.3457 31.8921C78.7198 39.3624 83.1798 45.8255 89.3083 46.3286C95.4363 46.8318 100.911 41.1842 101.536 33.7138C101.665 32.1804 101.579 30.6895 101.308 29.2838H101.308ZM101.189 32.7376C100.583 39.9742 95.2795 45.445 89.3433 44.9576C83.4066 44.4701 79.086 38.2095 79.6925 30.9729C79.7629 30.1326 79.8966 29.3162 80.0874 28.5301C82.0504 23.196 86.6106 19.6126 91.5956 20.0219C95.7677 20.3644 99.1815 23.4173 100.798 27.6758C101.191 29.2581 101.337 30.9687 101.189 32.7376H101.189Z" fill="url(#paint25_linear_5792_26378)"/>
<path d="M64.6205 21.1508C64.3051 29.8028 64.0835 37.7059 63.7686 46.3579H70.2053C70.2688 43.3592 70.3309 40.3606 70.3944 37.3619C71.72 40.86 73.045 44.3591 74.37 47.857C76.7677 46.8571 79.1662 45.8582 81.5637 44.8583C79.1341 40.3913 76.705 35.9253 74.2754 31.4582C76.7364 28.2416 82.5577 20.9634 83.4098 19.7451C81.1692 19.9016 76.9891 19.6824 74.7484 19.8387C73.5495 22.0249 72.1618 24.3058 70.9623 26.492C71.0883 24.3367 71.1201 22.931 71.2462 20.7759C69.038 20.9005 66.8286 21.0261 64.6205 21.1508Z" fill="url(#paint26_linear_5792_26378)"/>
<path d="M64.62 21.1511L64.5967 21.841L71.2459 21.1783V20.7764L64.62 21.1511Z" fill="#FE4349"/>
<path d="M74.8917 41.0848C73.8804 41.4232 72.8773 41.4681 71.9004 41.3366C72.7238 43.5104 73.5472 45.6842 74.3706 47.8576C76.7683 46.8577 79.1668 45.8589 81.5643 44.859C80.4436 42.7983 79.323 40.7379 78.2024 38.6777C77.3906 39.6754 76.3119 40.6095 74.8917 41.0848Z" fill="url(#paint27_linear_5792_26378)"/>
<path d="M64.07 37.4414C63.9848 40.0223 63.8662 43.6781 63.7686 46.358H70.2053C70.2432 44.565 70.2807 42.7722 70.3184 40.9793C67.8786 40.2279 65.7226 39.21 64.0702 37.4414H64.07Z" fill="url(#paint28_linear_5792_26378)"/>
<path d="M64.6205 21.1508L63.7686 46.3579H70.2053L70.3942 37.3621L74.37 47.8572L81.5637 44.8585L74.2754 31.4584L83.4098 19.7451L80.5355 19.8037L73.838 30.6705L80.7678 43.3951L74.4071 45.9595L69.7004 32.6186L69.7648 45.4332L64.3716 45.412L65.2404 21.1158L64.6205 21.1508Z" fill="url(#paint29_linear_5792_26378)"/>
<path d="M69.7988 20.8582L69.9917 27.9179L70.9628 26.4924L71.2469 20.7764L69.7988 20.8582Z" fill="#FE4349"/>
<path d="M65.2168 21.78C65.1056 23.7744 65.0844 26.2279 64.9873 28.1969C65.1769 27.2317 66.2937 26.1526 67.1902 26.0068C68.2948 25.8272 69.5232 26.2771 69.9699 27.9513C69.931 27.302 69.9718 27.1896 69.9593 26.6632C69.9168 25.0801 69.8441 22.9269 69.7983 21.3232C68.054 21.4777 66.9611 21.6255 65.2168 21.78Z" fill="#FFD76F"/>
<path d="M74.7487 19.8381C73.8455 21.4673 72.3983 23.9241 71.498 25.5298C71.6978 25.3494 73.094 23.6432 74.8843 23.987C75.2109 24.0496 75.6492 24.1659 76.1572 24.6468C76.5386 25.0079 76.7073 25.6632 76.7792 25.8985C77.8023 24.2571 79.375 21.5657 80.5608 19.7766C78.1356 19.7733 76.7502 19.8006 74.7489 19.8381H74.7487Z" fill="#FFD76F"/>
<path d="M74.749 19.8389L74.6025 20.1023L82.7569 20.6257L83.4103 19.7451L74.749 19.8389Z" fill="#FE4349"/>
<defs>
<radialGradient id="paint0_radial_5792_26378" cx="0" cy="0" r="1" gradientUnits="userSpaceOnUse" gradientTransform="translate(33.4577 12.4965) rotate(56.8305) scale(12.3711 12.4217)">
<stop stop-color="#7269E1"/>
<stop offset="1" stop-color="#1F184E"/>
</radialGradient>
<radialGradient id="paint1_radial_5792_26378" cx="0" cy="0" r="1" gradientUnits="userSpaceOnUse" gradientTransform="translate(58.2433 7.44245) rotate(90) scale(9.27359 23.8978)">
<stop stop-color="#2F2A5C"/>
<stop offset="1" stop-color="#2F2A5C" stop-opacity="0"/>
</radialGradient>
<linearGradient id="paint2_linear_5792_26378" x1="30.1965" y1="19.4149" x2="24.2491" y2="22.5534" gradientUnits="userSpaceOnUse">
<stop stop-color="#8E7BF0"/>
<stop offset="1" stop-color="#8E7BF0" stop-opacity="0"/>
</linearGradient>
<linearGradient id="paint3_linear_5792_26378" x1="35.5029" y1="24.7754" x2="26.7603" y2="28.3395" gradientUnits="userSpaceOnUse">
<stop stop-color="#8E7BF0"/>
<stop offset="1" stop-color="#8E7BF0" stop-opacity="0"/>
</linearGradient>
<radialGradient id="paint4_radial_5792_26378" cx="0" cy="0" r="1" gradientUnits="userSpaceOnUse" gradientTransform="translate(44.6719 10.9018) rotate(22.033) scale(24.4427 21.7512)">
<stop stop-color="#443296"/>
<stop offset="0.61983" stop-color="#443296" stop-opacity="0.43"/>
<stop offset="1" stop-color="#443296" stop-opacity="0"/>
</radialGradient>
<linearGradient id="paint5_linear_5792_26378" x1="15.2363" y1="12.5365" x2="21.0224" y2="16.368" gradientUnits="userSpaceOnUse">
<stop stop-color="#F89235"/>
<stop offset="1" stop-color="#FFEC3F"/>
</linearGradient>
<linearGradient id="paint6_linear_5792_26378" x1="70.5044" y1="55.1931" x2="76.2799" y2="61.7709" gradientUnits="userSpaceOnUse">
<stop stop-color="#F89235"/>
<stop offset="1" stop-color="#FFEC3F"/>
</linearGradient>
<linearGradient id="paint7_linear_5792_26378" x1="81.6333" y1="0.946479" x2="81.6333" y2="18.652" gradientUnits="userSpaceOnUse">
<stop stop-color="#F89235"/>
<stop offset="1" stop-color="#FFEC3F"/>
</linearGradient>
<radialGradient id="paint8_radial_5792_26378" cx="0" cy="0" r="1" gradientUnits="userSpaceOnUse" gradientTransform="translate(41.09 50.407) rotate(45.3943) scale(16.5942 43.7415)">
<stop stop-color="#332B60" stop-opacity="0"/>
<stop offset="1" stop-color="#332B60"/>
</radialGradient>
<linearGradient id="paint9_linear_5792_26378" x1="27.6793" y1="47.578" x2="36.101" y2="53.8032" gradientUnits="userSpaceOnUse">
<stop stop-color="#131629"/>
<stop offset="1" stop-color="#131629" stop-opacity="0"/>
</linearGradient>
<linearGradient id="paint10_linear_5792_26378" x1="41.9868" y1="50.4425" x2="54.1597" y2="60.055" gradientUnits="userSpaceOnUse">
<stop stop-color="#48349B"/>
<stop offset="1" stop-color="#3D3188"/>
</linearGradient>
<linearGradient id="paint11_linear_5792_26378" x1="39.1222" y1="24.3253" x2="39.1222" y2="47.2879" gradientUnits="userSpaceOnUse">
<stop stop-color="#F89235"/>
<stop offset="1" stop-color="#FFEC3F"/>
</linearGradient>
<linearGradient id="paint12_linear_5792_26378" x1="39.1881" y1="45.4516" x2="39.1881" y2="34.5345" gradientUnits="userSpaceOnUse">
<stop stop-color="#FD4844"/>
<stop offset="1" stop-color="#FD4844" stop-opacity="0.34"/>
</linearGradient>
<linearGradient id="paint13_linear_5792_26378" x1="39.3508" y1="24.461" x2="39.3508" y2="47.5099" gradientUnits="userSpaceOnUse">
<stop stop-color="#FD3D43"/>
<stop offset="1" stop-color="#FAD025"/>
</linearGradient>
<linearGradient id="paint14_linear_5792_26378" x1="9.5574" y1="18.9104" x2="9.5574" y2="48.9488" gradientUnits="userSpaceOnUse">
<stop stop-color="#F89235"/>
<stop offset="1" stop-color="#FFEC3F"/>
</linearGradient>
<linearGradient id="paint15_linear_5792_26378" x1="9.43834" y1="46.5464" x2="9.43834" y2="33.3217" gradientUnits="userSpaceOnUse">
<stop stop-color="#FD4844"/>
<stop offset="1" stop-color="#FD4844" stop-opacity="0.34"/>
</linearGradient>
<linearGradient id="paint16_linear_5792_26378" x1="10.1587" y1="19.0879" x2="10.1587" y2="49.2395" gradientUnits="userSpaceOnUse">
<stop stop-color="#FD3D43"/>
<stop offset="1" stop-color="#FAD025"/>
</linearGradient>
<linearGradient id="paint17_linear_5792_26378" x1="26.5821" y1="19.7498" x2="26.5821" y2="48.6229" gradientUnits="userSpaceOnUse">
<stop stop-color="#F89235"/>
<stop offset="1" stop-color="#FFEC3F"/>
</linearGradient>
<linearGradient id="paint18_linear_5792_26378" x1="26.9512" y1="46.3149" x2="26.9512" y2="34.6211" gradientUnits="userSpaceOnUse">
<stop stop-color="#FD4844"/>
<stop offset="1" stop-color="#FD4844" stop-opacity="0.34"/>
</linearGradient>
<linearGradient id="paint19_linear_5792_26378" x1="26.9555" y1="19.9204" x2="26.9555" y2="48.9026" gradientUnits="userSpaceOnUse">
<stop stop-color="#FD3D43"/>
<stop offset="1" stop-color="#FAD025"/>
</linearGradient>
<linearGradient id="paint20_linear_5792_26378" x1="53.042" y1="18.8227" x2="53.042" y2="49.7201" gradientUnits="userSpaceOnUse">
<stop stop-color="#F89235"/>
<stop offset="1" stop-color="#FFEC3F"/>
</linearGradient>
<linearGradient id="paint21_linear_5792_26378" x1="53.299" y1="47.2477" x2="53.299" y2="28.9138" gradientUnits="userSpaceOnUse">
<stop stop-color="#FD4844"/>
<stop offset="1" stop-color="#FD4844" stop-opacity="0.34"/>
</linearGradient>
<linearGradient id="paint22_linear_5792_26378" x1="53.5554" y1="19.0052" x2="53.5554" y2="50.0194" gradientUnits="userSpaceOnUse">
<stop stop-color="#FD3D43"/>
<stop offset="1" stop-color="#FAD025"/>
</linearGradient>
<linearGradient id="paint23_linear_5792_26378" x1="89.7526" y1="17.9916" x2="89.7526" y2="48.8194" gradientUnits="userSpaceOnUse">
<stop stop-color="#F89235"/>
<stop offset="1" stop-color="#FFEC3F"/>
</linearGradient>
<linearGradient id="paint24_linear_5792_26378" x1="89.5228" y1="46.3547" x2="89.5228" y2="32.941" gradientUnits="userSpaceOnUse">
<stop stop-color="#FD4844"/>
<stop offset="1" stop-color="#FD4844" stop-opacity="0.34"/>
</linearGradient>
<linearGradient id="paint25_linear_5792_26378" x1="90.4411" y1="18.1737" x2="90.4411" y2="49.1178" gradientUnits="userSpaceOnUse">
<stop stop-color="#FD3D43"/>
<stop offset="1" stop-color="#FAD025"/>
</linearGradient>
<linearGradient id="paint26_linear_5792_26378" x1="72.9839" y1="18.4444" x2="72.9839" y2="50.4071" gradientUnits="userSpaceOnUse">
<stop stop-color="#F89235"/>
<stop offset="1" stop-color="#FFEC3F"/>
</linearGradient>
<linearGradient id="paint27_linear_5792_26378" x1="76.7281" y1="47.8542" x2="76.7281" y2="38.1869" gradientUnits="userSpaceOnUse">
<stop stop-color="#FD4844"/>
<stop offset="1" stop-color="#FD4844" stop-opacity="0.34"/>
</linearGradient>
<linearGradient id="paint28_linear_5792_26378" x1="67.0406" y1="46.3546" x2="67.0406" y2="36.9646" gradientUnits="userSpaceOnUse">
<stop stop-color="#FD4844"/>
<stop offset="1" stop-color="#FD4844" stop-opacity="0.34"/>
</linearGradient>
<linearGradient id="paint29_linear_5792_26378" x1="73.5892" y1="18.6332" x2="73.5892" y2="50.7167" gradientUnits="userSpaceOnUse">
<stop stop-color="#FD3D43"/>
<stop offset="1" stop-color="#FAD025"/>
</linearGradient>
</defs>
</svg>
