<svg width="21" height="20" viewBox="0 0 21 20" fill="none" xmlns="http://www.w3.org/2000/svg">
<g id="Low">
<path id="Vector" fill-rule="evenodd" clip-rule="evenodd" d="M6.9873 5.76706L10.7581 7.57391C13.331 7.68257 15.4678 9.45985 16.0511 11.8224C16.2249 12.5261 16.7962 13.1223 17.521 13.1223C18.2458 13.1223 18.8447 12.5305 18.7255 11.8155C18.0822 7.95879 14.6402 5 10.4956 5C9.24452 5 8.05467 5.28126 6.9873 5.76706ZM5.18504 11.1027L4.08268 7.94922V7.95774C3.15505 9.0461 2.51563 10.3693 2.27394 11.8246C2.15519 12.5396 2.75423 13.1311 3.47901 13.1311C4.20379 13.1311 4.77527 12.5352 4.9493 11.8316C5.01103 11.582 5.09007 11.3388 5.18504 11.1027Z" fill="#6F728D"/>
<path id="Vector_2" d="M12.2192 9.45779L5.54453 6.269C5.14309 6.07722 4.7099 6.46587 4.85718 6.88568L7.17979 13.5062C7.67848 14.9295 9.05206 15.8329 10.5131 15.8329C10.8893 15.8329 11.283 15.7732 11.6592 15.6454C13.5053 15.0318 14.4851 13.0715 13.8465 11.2732C13.5665 10.4805 12.9803 9.8328 12.2104 9.45779H12.2192ZM10.5919 13.7022C9.9007 13.7363 9.31452 13.2249 9.28828 12.5516C9.25328 11.8868 9.78696 11.3158 10.4694 11.2902C11.1518 11.2561 11.738 11.7675 11.773 12.4408C11.808 13.1056 11.2743 13.6766 10.5919 13.7022Z" fill="#43C365"/>
</g>
</svg>
