<svg width="24" height="24" viewBox="0 0 24 24" fill="none" xmlns="http://www.w3.org/2000/svg">
<g id="Mid">
<path id="Vector" fill-rule="evenodd" clip-rule="evenodd" d="M9.73325 6.11523L8.01237 10.2448H8.00188C6.6894 11.1786 5.71872 12.565 5.33192 14.174C5.12873 15.0192 4.44304 15.7336 3.57376 15.7336C2.70447 15.7336 1.98646 15.024 2.12578 14.1659C2.77012 10.1976 5.81924 7.01614 9.73325 6.11523ZM14.3619 6.13756L14.3607 6.13477H14.3502C14.3541 6.13569 14.358 6.13663 14.3619 6.13756ZM14.3619 6.13756L16.1131 10.3266C17.3683 11.2614 18.2927 12.6125 18.6677 14.1728C18.8709 15.018 19.5565 15.7324 20.4258 15.7324C21.2951 15.7324 22.0131 15.0228 21.8741 14.1647C21.2366 10.2301 18.239 7.06879 14.3619 6.13756Z" fill="#6F728D"/>
<path id="Vector_2" d="M8.07542 13.4731L11.5809 5.10098C11.7522 4.69187 12.3318 4.69177 12.5032 5.10083L15.9033 13.2137C16.6169 14.9154 16.1132 16.8038 14.7911 17.9555C14.4553 18.2564 14.0565 18.5054 13.6053 18.6818C11.4437 19.5637 8.96734 18.5469 8.07542 16.4095C7.67668 15.4653 7.67668 14.4173 8.07542 13.4731ZM12.9967 16.0671C13.6473 15.5587 13.7522 14.6352 13.2381 14.0023C12.7239 13.3694 11.79 13.2656 11.1499 13.774C10.5098 14.2721 10.3944 15.2059 10.9086 15.8388C11.4227 16.4717 12.3566 16.5755 12.9967 16.0671Z" fill="#E0A932"/>
</g>
</svg>
