<svg width="24" height="24" viewBox="0 0 24 24" fill="none" xmlns="http://www.w3.org/2000/svg">
<g id="Hi">
<path id="Vector" fill-rule="evenodd" clip-rule="evenodd" d="M16.2154 6.92047L11.6904 9.08869C8.60289 9.21909 6.0387 11.3518 5.33875 14.1869C5.13029 15.0313 4.44467 15.7468 3.57493 15.7468C2.70519 15.7468 1.9865 15.0365 2.12957 14.1787C2.90142 9.55055 7.03187 6 12.0054 6C13.5067 6 14.9345 6.33751 16.2154 6.92047ZM18.3781 13.3232L19.7009 9.53906V9.54929C20.8141 10.8553 21.5814 12.4432 21.8714 14.1895C22.0139 15.0475 21.295 15.7574 20.4253 15.7574C19.5556 15.7574 18.8698 15.0422 18.6609 14.1979C18.5869 13.8985 18.492 13.6065 18.3781 13.3232Z" fill="#6F728D"/>
<path id="Vector_2" d="M9.93703 11.3493L18.1637 7.41906C18.5652 7.22727 18.9983 7.61592 18.8511 8.03574L15.9843 16.2074C15.3858 17.9154 13.7376 18.9995 11.9843 18.9995C11.5328 18.9995 11.0604 18.9279 10.6089 18.7745C8.39372 18.0381 7.21787 15.6858 7.98427 13.5278C8.32023 12.5766 9.02365 11.7993 9.94753 11.3493H9.93703ZM11.8898 16.4426C12.7192 16.4835 13.4226 15.8699 13.4541 15.0619C13.4961 14.2642 12.8557 13.5789 12.0368 13.5482C11.2179 13.5073 10.5145 14.121 10.4725 14.9289C10.4305 15.7267 11.0709 16.4119 11.8898 16.4426Z" fill="#D54949"/>
</g>
</svg>
