<svg width="24" height="24" viewBox="0 0 24 24" fill="none" xmlns="http://www.w3.org/2000/svg">
<g id="Ruble">
<path id="Vector" d="M13.2265 13.6203H6.32429C5.86746 13.6203 5.5 13.2613 5.5 12.815C5.5 12.3687 5.86746 12.0097 6.32429 12.0097H13.2265C13.9813 12.0097 14.597 11.8933 15.0837 11.6507C15.5703 11.4081 15.9278 11.0686 16.1562 10.632C16.3946 10.1953 16.5038 9.67141 16.5038 9.07956C16.5038 8.59444 16.3946 8.12872 16.1761 7.68241C15.9576 7.23609 15.61 6.8674 15.1333 6.57633C14.6566 6.28525 14.021 6.13972 13.2364 6.13972H9.65126V18.5298C9.65126 19.0634 9.20435 19.5 8.65814 19.5C8.11192 19.5 7.66501 19.0634 7.66501 18.5298V5.2762C7.66501 4.84929 8.02254 4.5 8.45951 4.5H13.2265C14.3686 4.5 15.3319 4.69405 16.1066 5.09185C16.8911 5.47995 17.4771 6.01358 17.8843 6.70246C18.2914 7.38163 18.5 8.16753 18.5 9.05045C18.5 10.011 18.2914 10.8357 17.8843 11.5246C17.487 12.2038 16.8911 12.7277 16.1066 13.0867C15.322 13.4457 14.3686 13.6203 13.2265 13.6203ZM13.0974 15.8422C13.0974 16.2885 12.72 16.6572 12.2632 16.6572H6.33422C5.87739 16.6572 5.5 16.2885 5.5 15.8422C5.5 15.3959 5.87739 15.0272 6.33422 15.0272H12.2632C12.72 15.0272 13.0974 15.3959 13.0974 15.8422Z" fill="#4D506C"/>
</g>
</svg>
