<svg width="312" height="230" viewBox="0 0 312 230" fill="none" xmlns="http://www.w3.org/2000/svg">
<rect width="312" height="230" rx="16" fill="#131629"/>
<rect width="256" height="170" transform="translate(28 30)" fill="#131629"/>
<path d="M179 44C179 37.9249 183.925 33 190 33H270C276.075 33 281 37.9249 281 44V148C281 154.075 276.075 159 270 159H190C183.925 159 179 154.075 179 148V44Z" fill="url(#paint0_linear_5872_122914)"/>
<path d="M179 44C179 37.9249 183.925 33 190 33H270C276.075 33 281 37.9249 281 44V148C281 154.075 276.075 159 270 159H190C183.925 159 179 154.075 179 148V44Z" stroke="#6D62F6" stroke-width="2"/>
<path d="M184 44C184 40.6863 186.686 38 190 38H270C273.314 38 276 40.6863 276 44V68C276 71.3137 273.314 74 270 74H190C186.686 74 184 71.3137 184 68V44Z" fill="#393C59"/>
<path d="M193.239 61V51.2H195.059V55.008H199.511V51.2H201.331V61H199.511V56.674H195.059V61H193.239ZM203.604 61V54H205.326V58.424L208.861 54H210.443V61H208.721V56.52L205.165 61H203.604ZM214.906 61.175C214.514 61.175 214.133 61.1447 213.765 61.084C213.396 61.028 213.048 60.937 212.722 60.811C212.4 60.6803 212.108 60.51 211.847 60.3L212.589 59.124C212.878 59.3667 213.221 59.544 213.618 59.656C214.014 59.768 214.42 59.824 214.836 59.824C215.368 59.824 215.783 59.7493 216.082 59.6C216.385 59.446 216.537 59.1963 216.537 58.851C216.537 58.5477 216.38 58.333 216.068 58.207C215.76 58.081 215.305 58.018 214.703 58.018H213.415V56.716H214.654C215.19 56.716 215.596 56.6553 215.872 56.534C216.152 56.4127 216.292 56.2097 216.292 55.925C216.292 55.7523 216.231 55.61 216.11 55.498C215.988 55.3813 215.813 55.295 215.585 55.239C215.361 55.1783 215.097 55.148 214.794 55.148C214.397 55.148 214.017 55.2063 213.653 55.323C213.289 55.4397 212.971 55.6193 212.701 55.862L212.057 54.679C212.435 54.3757 212.88 54.147 213.394 53.993C213.912 53.839 214.43 53.762 214.948 53.762C215.564 53.762 216.093 53.8367 216.537 53.986C216.98 54.1353 217.318 54.3523 217.552 54.637C217.79 54.9217 217.909 55.267 217.909 55.673C217.909 56.0183 217.799 56.324 217.58 56.59C217.365 56.8513 217.048 57.0403 216.628 57.157C217.141 57.2783 217.531 57.486 217.797 57.78C218.063 58.0693 218.196 58.438 218.196 58.886C218.196 59.3527 218.06 59.7587 217.79 60.104C217.524 60.4447 217.143 60.7083 216.649 60.895C216.159 61.0817 215.578 61.175 214.906 61.175ZM224.425 61L222.157 57.304L224.341 54H226.245L224.082 57.213L226.56 61H224.425ZM219.819 61V54H221.611V56.639H223.725V58.095H221.611V61H219.819ZM227.845 61V54H229.567V58.424L233.102 54H234.684V61H232.962V56.52L229.406 61H227.845ZM236.745 61V54H238.467V58.424L242.002 54H243.584V61H241.862V56.52L238.306 61H236.745ZM240.161 52.88C239.62 52.88 239.146 52.7727 238.74 52.558C238.334 52.3387 238.019 52.0377 237.795 51.655C237.576 51.2723 237.473 50.8313 237.487 50.332H238.964C238.95 50.7333 239.05 51.0577 239.265 51.305C239.484 51.5477 239.783 51.669 240.161 51.669C240.539 51.669 240.835 51.5477 241.05 51.305C241.269 51.0577 241.367 50.7333 241.344 50.332H242.828C242.842 50.822 242.735 51.2607 242.506 51.648C242.282 52.0307 241.967 52.3317 241.561 52.551C241.155 52.7703 240.688 52.88 240.161 52.88Z" fill="#E5E6ED"/>
<path d="M197.726 101.21C196.709 101.21 195.817 101 195.052 100.58C194.287 100.16 193.692 99.5697 193.267 98.809C192.842 98.0437 192.63 97.1453 192.63 96.114C192.63 95.3627 192.754 94.6767 193.001 94.056C193.253 93.4307 193.608 92.8893 194.065 92.432C194.527 91.97 195.068 91.6153 195.689 91.368C196.314 91.116 197 90.99 197.747 90.99C198.517 90.99 199.175 91.088 199.721 91.284C200.267 91.4753 200.752 91.7483 201.177 92.103L200.246 93.594C199.947 93.3093 199.597 93.0993 199.196 92.964C198.799 92.824 198.358 92.754 197.873 92.754C197.355 92.754 196.891 92.831 196.48 92.985C196.069 93.139 195.719 93.363 195.43 93.657C195.141 93.9463 194.919 94.2963 194.765 94.707C194.611 95.1177 194.534 95.5797 194.534 96.093C194.534 96.7977 194.672 97.3997 194.947 97.899C195.222 98.3937 195.614 98.774 196.123 99.04C196.632 99.306 197.236 99.439 197.936 99.439C198.407 99.439 198.867 99.3667 199.315 99.222C199.768 99.0773 200.195 98.8463 200.596 98.529L201.436 100.062C200.969 100.426 200.428 100.708 199.812 100.909C199.201 101.11 198.505 101.21 197.726 101.21ZM202.811 103.94V94H204.393V94.924C204.664 94.5833 205.012 94.3103 205.436 94.105C205.861 93.895 206.374 93.79 206.976 93.79C207.653 93.79 208.255 93.9487 208.782 94.266C209.31 94.5833 209.723 95.022 210.021 95.582C210.325 96.1373 210.476 96.7767 210.476 97.5C210.476 98.018 210.39 98.501 210.217 98.949C210.045 99.397 209.802 99.7913 209.489 100.132C209.177 100.468 208.803 100.732 208.369 100.923C207.94 101.114 207.466 101.21 206.948 101.21C206.444 101.21 205.996 101.124 205.604 100.951C205.217 100.774 204.881 100.533 204.596 100.23V103.94H202.811ZM206.647 99.642C207.044 99.642 207.396 99.5557 207.704 99.383C208.012 99.2057 208.255 98.9583 208.432 98.641C208.61 98.319 208.698 97.9387 208.698 97.5C208.698 97.0613 208.61 96.681 208.432 96.359C208.255 96.037 208.01 95.7897 207.697 95.617C207.389 95.4443 207.039 95.358 206.647 95.358C206.251 95.358 205.898 95.4443 205.59 95.617C205.282 95.7897 205.04 96.037 204.862 96.359C204.685 96.681 204.596 97.0613 204.596 97.5C204.596 97.9387 204.683 98.319 204.855 98.641C205.033 98.9583 205.275 99.2057 205.583 99.383C205.896 99.5557 206.251 99.642 206.647 99.642ZM215.26 101.21C214.5 101.21 213.832 101.056 213.258 100.748C212.684 100.435 212.236 100.001 211.914 99.446C211.597 98.8907 211.438 98.2443 211.438 97.507C211.438 96.9657 211.529 96.4687 211.711 96.016C211.898 95.5633 212.159 95.1713 212.495 94.84C212.836 94.504 213.233 94.245 213.685 94.063C214.143 93.881 214.642 93.79 215.183 93.79C215.771 93.79 216.296 93.895 216.758 94.105C217.22 94.3103 217.603 94.602 217.906 94.98C218.214 95.3533 218.429 95.792 218.55 96.296C218.676 96.7953 218.693 97.3413 218.599 97.934H213.125C213.121 98.3027 213.207 98.6247 213.384 98.9C213.566 99.1753 213.823 99.3923 214.154 99.551C214.49 99.705 214.885 99.782 215.337 99.782C215.739 99.782 216.124 99.7237 216.492 99.607C216.861 99.4903 217.204 99.3177 217.521 99.089L218.151 100.342C217.932 100.519 217.659 100.673 217.332 100.804C217.006 100.935 216.66 101.035 216.296 101.105C215.937 101.175 215.592 101.21 215.26 101.21ZM213.23 96.66H216.863C216.849 96.1887 216.693 95.82 216.394 95.554C216.096 95.2833 215.678 95.148 215.141 95.148C214.609 95.148 214.171 95.2833 213.825 95.554C213.48 95.82 213.282 96.1887 213.23 96.66ZM225.153 101V95.456H222.605V96.233C222.605 96.8303 222.563 97.3833 222.479 97.892C222.399 98.4007 222.257 98.8533 222.052 99.25C221.846 99.6467 221.562 99.9803 221.198 100.251C220.834 100.517 220.369 100.708 219.805 100.825L219.406 99.6C219.84 99.4973 220.166 99.299 220.386 99.005C220.61 98.7063 220.759 98.3237 220.834 97.857C220.913 97.3903 220.953 96.849 220.953 96.233V94H226.945V101H225.153ZM219.406 103.1V99.6L220.442 99.691L220.722 99.544H228.352V103.1H226.714V101H221.044V103.1H219.406ZM229.649 101V94H231.441V96.639H234.668V94H236.46V101H234.668V98.095H231.441V101H229.649ZM238.522 101V94H240.244V98.424L243.779 94H245.361V101H243.639V96.52L240.083 101H238.522ZM247.423 101V94H249.145V98.424L252.68 94H254.262V101H252.54V96.52L248.984 101H247.423ZM250.839 92.88C250.297 92.88 249.824 92.7727 249.418 92.558C249.012 92.3387 248.697 92.0377 248.473 91.655C248.253 91.2723 248.151 90.8313 248.165 90.332H249.642C249.628 90.7333 249.728 91.0577 249.943 91.305C250.162 91.5477 250.461 91.669 250.839 91.669C251.217 91.669 251.513 91.5477 251.728 91.305C251.947 91.0577 252.045 90.7333 252.022 90.332H253.506C253.52 90.822 253.412 91.2607 253.184 91.648C252.96 92.0307 252.645 92.3317 252.239 92.551C251.833 92.7703 251.366 92.88 250.839 92.88Z" fill="#E5E6ED"/>
<path d="M193.239 141V131.2H196.746C197.703 131.2 198.473 131.41 199.056 131.83C199.644 132.245 199.938 132.861 199.938 133.678C199.938 133.981 199.868 134.268 199.728 134.539C199.588 134.81 199.406 135.048 199.182 135.253C198.958 135.454 198.72 135.608 198.468 135.715C199 135.883 199.439 136.184 199.784 136.618C200.129 137.052 200.302 137.582 200.302 138.207C200.302 138.758 200.162 139.243 199.882 139.663C199.607 140.083 199.212 140.412 198.699 140.65C198.186 140.883 197.579 141 196.879 141H193.239ZM195.059 139.607H196.592C197.203 139.607 197.661 139.486 197.964 139.243C198.267 138.996 198.419 138.627 198.419 138.137C198.419 137.656 198.267 137.288 197.964 137.031C197.665 136.774 197.21 136.646 196.599 136.646H195.059V139.607ZM195.059 135.33H196.48C196.821 135.33 197.117 135.274 197.369 135.162C197.621 135.05 197.817 134.889 197.957 134.679C198.097 134.464 198.167 134.21 198.167 133.916C198.167 133.487 198.018 133.16 197.719 132.936C197.425 132.707 197.003 132.593 196.452 132.593H195.059V135.33ZM202.018 141V134H203.81V139.684H204.937C205.395 139.684 205.74 139.593 205.973 139.411C206.211 139.224 206.33 138.954 206.33 138.599C206.33 138.249 206.221 137.978 206.001 137.787C205.782 137.591 205.467 137.493 205.056 137.493H203.593V136.191H205.196C206.12 136.191 206.848 136.396 207.38 136.807C207.912 137.213 208.178 137.81 208.178 138.599C208.178 139.098 208.052 139.528 207.8 139.887C207.548 140.246 207.194 140.522 206.736 140.713C206.279 140.904 205.742 141 205.126 141H202.018ZM209.235 141V134H211.027V141H209.235ZM216.341 141.21C215.599 141.21 214.938 141.049 214.36 140.727C213.786 140.4 213.333 139.959 213.002 139.404C212.67 138.844 212.505 138.209 212.505 137.5C212.505 136.963 212.603 136.471 212.799 136.023C212.995 135.57 213.27 135.178 213.625 134.847C213.979 134.511 214.395 134.252 214.871 134.07C215.351 133.883 215.874 133.79 216.439 133.79C216.929 133.79 217.384 133.855 217.804 133.986C218.224 134.117 218.609 134.317 218.959 134.588L218.126 135.939C217.906 135.743 217.657 135.598 217.377 135.505C217.101 135.407 216.812 135.358 216.509 135.358C216.051 135.358 215.657 135.442 215.326 135.61C214.999 135.778 214.747 136.021 214.57 136.338C214.392 136.655 214.304 137.04 214.304 137.493C214.304 138.165 214.5 138.692 214.892 139.075C215.288 139.453 215.827 139.642 216.509 139.642C216.849 139.642 217.171 139.579 217.475 139.453C217.778 139.327 218.042 139.154 218.266 138.935L219.064 140.293C218.681 140.578 218.254 140.802 217.783 140.965C217.311 141.128 216.831 141.21 216.341 141.21ZM223.511 141.21C222.765 141.21 222.102 141.042 221.523 140.706C220.949 140.365 220.499 139.915 220.172 139.355C219.846 138.79 219.682 138.172 219.682 137.5C219.682 137.005 219.776 136.534 219.962 136.086C220.149 135.638 220.413 135.244 220.753 134.903C221.099 134.558 221.505 134.287 221.971 134.091C222.438 133.89 222.951 133.79 223.511 133.79C224.253 133.79 224.911 133.958 225.485 134.294C226.064 134.63 226.517 135.08 226.843 135.645C227.175 136.21 227.34 136.828 227.34 137.5C227.34 137.995 227.245 138.466 227.053 138.914C226.867 139.357 226.603 139.752 226.262 140.097C225.922 140.442 225.518 140.715 225.051 140.916C224.585 141.112 224.071 141.21 223.511 141.21ZM223.504 139.642C223.901 139.642 224.253 139.556 224.561 139.383C224.874 139.206 225.119 138.958 225.296 138.641C225.474 138.319 225.562 137.939 225.562 137.5C225.562 137.061 225.474 136.681 225.296 136.359C225.119 136.037 224.876 135.79 224.568 135.617C224.26 135.444 223.908 135.358 223.511 135.358C223.115 135.358 222.76 135.444 222.447 135.617C222.139 135.79 221.897 136.037 221.719 136.359C221.547 136.681 221.46 137.061 221.46 137.5C221.46 137.939 221.549 138.319 221.726 138.641C221.904 138.958 222.146 139.206 222.454 139.383C222.762 139.556 223.112 139.642 223.504 139.642ZM233.421 141L231.153 137.304L233.337 134H235.241L233.078 137.213L235.556 141H233.421ZM228.815 141V134H230.607V136.639H232.721V138.095H230.607V141H228.815ZM236.841 141V134H238.563V138.424L242.098 134H243.68V141H241.958V136.52L238.402 141H236.841ZM245.741 141V134H247.463V138.424L250.998 134H252.58V141H250.858V136.52L247.302 141H245.741ZM249.157 132.88C248.616 132.88 248.142 132.773 247.736 132.558C247.33 132.339 247.015 132.038 246.791 131.655C246.572 131.272 246.469 130.831 246.483 130.332H247.96C247.946 130.733 248.046 131.058 248.261 131.305C248.48 131.548 248.779 131.669 249.157 131.669C249.535 131.669 249.831 131.548 250.046 131.305C250.265 131.058 250.363 130.733 250.34 130.332H251.824C251.838 130.822 251.731 131.261 251.502 131.648C251.278 132.031 250.963 132.332 250.557 132.551C250.151 132.77 249.684 132.88 249.157 132.88Z" fill="#E5E6ED"/>
<path d="M179 178C179 171.925 183.925 167 190 167H270C276.075 167 281 171.925 281 178V186C281 192.075 276.075 197 270 197H190C183.925 197 179 192.075 179 186V178Z" fill="url(#paint1_linear_5872_122914)"/>
<path d="M179 178C179 171.925 183.925 167 190 167H270C276.075 167 281 171.925 281 178V186C281 192.075 276.075 197 270 197H190C183.925 197 179 192.075 179 186V178Z" stroke="#6D62F6" stroke-width="2"/>
<path d="M203.824 186V177.6H206.974C207.578 177.6 208.114 177.706 208.582 177.918C209.05 178.126 209.416 178.428 209.68 178.824C209.948 179.22 210.082 179.696 210.082 180.252C210.082 180.816 209.958 181.294 209.71 181.686C209.466 182.078 209.11 182.378 208.642 182.586C208.174 182.79 207.606 182.892 206.938 182.892H205.384V186H203.824ZM205.384 181.566H206.932C207.432 181.566 207.822 181.462 208.102 181.254C208.382 181.046 208.522 180.722 208.522 180.282C208.522 179.842 208.378 179.512 208.09 179.292C207.806 179.068 207.424 178.956 206.944 178.956H205.384V181.566ZM211.349 186V180H212.825V183.792L215.855 180H217.211V186H215.735V182.16L212.687 186H211.349ZM221.762 186.18C221.126 186.18 220.56 186.042 220.064 185.766C219.572 185.486 219.184 185.108 218.9 184.632C218.616 184.152 218.474 183.608 218.474 183C218.474 182.54 218.558 182.118 218.726 181.734C218.894 181.346 219.13 181.01 219.434 180.726C219.738 180.438 220.094 180.216 220.502 180.06C220.914 179.9 221.362 179.82 221.846 179.82C222.266 179.82 222.656 179.876 223.016 179.988C223.376 180.1 223.706 180.272 224.006 180.504L223.292 181.662C223.104 181.494 222.89 181.37 222.65 181.29C222.414 181.206 222.166 181.164 221.906 181.164C221.514 181.164 221.176 181.236 220.892 181.38C220.612 181.524 220.396 181.732 220.244 182.004C220.092 182.276 220.016 182.606 220.016 182.994C220.016 183.57 220.184 184.022 220.52 184.35C220.86 184.674 221.322 184.836 221.906 184.836C222.198 184.836 222.474 184.782 222.734 184.674C222.994 184.566 223.22 184.418 223.412 184.23L224.096 185.394C223.768 185.638 223.402 185.83 222.998 185.97C222.594 186.11 222.182 186.18 221.762 186.18ZM229.195 186L227.251 182.832L229.123 180H230.755L228.901 182.754L231.025 186H229.195ZM225.247 186V180H226.783V182.262H228.595V183.51H226.783V186H225.247Z" fill="white"/>
<path fill-rule="evenodd" clip-rule="evenodd" d="M243.987 177.767L247.758 179.574C250.331 179.683 252.468 181.46 253.051 183.822C253.225 184.526 253.796 185.122 254.521 185.122C255.246 185.122 255.845 184.53 255.725 183.816C255.082 179.959 251.64 177 247.496 177C246.244 177 245.055 177.281 243.987 177.767ZM242.185 183.103L241.083 179.949V179.958C240.155 181.046 239.516 182.369 239.274 183.825C239.155 184.54 239.754 185.131 240.479 185.131C241.204 185.131 241.775 184.535 241.949 183.832C242.011 183.582 242.09 183.339 242.185 183.103Z" fill="#6F728D"/>
<path d="M249.219 181.457L242.545 178.269C242.143 178.077 241.71 178.466 241.857 178.885L244.18 185.506C244.679 186.929 246.052 187.833 247.513 187.833C247.89 187.833 248.283 187.773 248.66 187.645C250.506 187.031 251.485 185.071 250.847 183.273C250.567 182.48 249.981 181.832 249.211 181.457H249.219ZM247.592 185.702C246.901 185.736 246.315 185.225 246.289 184.551C246.254 183.886 246.787 183.315 247.47 183.29C248.152 183.256 248.738 183.767 248.773 184.44C248.808 185.105 248.275 185.676 247.592 185.702Z" fill="#43C365"/>
<path d="M30 178C30 171.373 35.3726 166 42 166H122C128.627 166 134 171.373 134 178V186C134 192.627 128.627 198 122 198H42C35.3726 198 30 192.627 30 186V178Z" fill="#21233A"/>
<path d="M55.8237 186V177.6H58.9737C59.5777 177.6 60.1137 177.706 60.5817 177.918C61.0497 178.126 61.4157 178.428 61.6797 178.824C61.9477 179.22 62.0817 179.696 62.0817 180.252C62.0817 180.816 61.9577 181.294 61.7097 181.686C61.4657 182.078 61.1097 182.378 60.6417 182.586C60.1737 182.79 59.6057 182.892 58.9377 182.892H57.3837V186H55.8237ZM57.3837 181.566H58.9317C59.4317 181.566 59.8217 181.462 60.1017 181.254C60.3817 181.046 60.5217 180.722 60.5217 180.282C60.5217 179.842 60.3777 179.512 60.0897 179.292C59.8057 179.068 59.4237 178.956 58.9437 178.956H57.3837V181.566ZM63.3489 186V180H64.8249V183.792L67.8549 180H69.2109V186H67.7349V182.16L64.6869 186H63.3489ZM73.7618 186.18C73.1258 186.18 72.5598 186.042 72.0638 185.766C71.5718 185.486 71.1838 185.108 70.8998 184.632C70.6158 184.152 70.4738 183.608 70.4738 183C70.4738 182.54 70.5578 182.118 70.7258 181.734C70.8938 181.346 71.1298 181.01 71.4338 180.726C71.7378 180.438 72.0938 180.216 72.5018 180.06C72.9138 179.9 73.3618 179.82 73.8458 179.82C74.2658 179.82 74.6558 179.876 75.0158 179.988C75.3758 180.1 75.7058 180.272 76.0058 180.504L75.2918 181.662C75.1038 181.494 74.8898 181.37 74.6498 181.29C74.4138 181.206 74.1658 181.164 73.9058 181.164C73.5138 181.164 73.1758 181.236 72.8918 181.38C72.6118 181.524 72.3958 181.732 72.2438 182.004C72.0918 182.276 72.0158 182.606 72.0158 182.994C72.0158 183.57 72.1838 184.022 72.5198 184.35C72.8598 184.674 73.3218 184.836 73.9058 184.836C74.1978 184.836 74.4738 184.782 74.7338 184.674C74.9938 184.566 75.2198 184.418 75.4118 184.23L76.0958 185.394C75.7678 185.638 75.4018 185.83 74.9978 185.97C74.5938 186.11 74.1818 186.18 73.7618 186.18ZM81.1954 186L79.2514 182.832L81.1234 180H82.7554L80.9014 182.754L83.0254 186H81.1954ZM77.2474 186V180H78.7834V182.262H80.5954V183.51H78.7834V186H77.2474Z" fill="white"/>
<path fill-rule="evenodd" clip-rule="evenodd" d="M95.9872 177.767L99.758 179.574C102.331 179.683 104.468 181.46 105.051 183.822C105.225 184.526 105.796 185.122 106.521 185.122C107.246 185.122 107.845 184.53 107.725 183.816C107.082 179.959 103.64 177 99.4956 177C98.2445 177 97.0546 177.281 95.9872 177.767ZM94.185 183.103L93.0826 179.949V179.958C92.155 181.046 91.5156 182.369 91.2739 183.825C91.1551 184.54 91.7542 185.131 92.4789 185.131C93.2037 185.131 93.7752 184.535 93.9492 183.832C94.011 183.582 94.09 183.339 94.185 183.103Z" fill="#6F728D"/>
<path d="M101.219 181.457L94.5448 178.269C94.1434 178.077 93.7102 178.466 93.8575 178.885L96.1801 185.506C96.6788 186.929 98.0524 187.833 99.5134 187.833C99.8896 187.833 100.283 187.773 100.66 187.645C102.506 187.031 103.485 185.071 102.847 183.273C102.567 182.48 101.981 181.832 101.211 181.457H101.219ZM99.5922 185.702C98.901 185.736 98.3148 185.225 98.2886 184.551C98.2536 183.886 98.7873 183.315 99.4697 183.29C100.152 183.256 100.738 183.767 100.773 184.44C100.808 185.105 100.275 185.676 99.5922 185.702Z" fill="#43C365"/>
<path d="M130 183C130 185.209 131.791 187 134 187C136.209 187 138 185.209 138 183C138 180.791 136.209 179 134 179C131.791 179 130 180.791 130 183ZM178.53 183.53C178.823 183.237 178.823 182.763 178.53 182.47L173.757 177.697C173.464 177.404 172.99 177.404 172.697 177.697C172.404 177.99 172.404 178.464 172.697 178.757L176.939 183L172.697 187.243C172.404 187.536 172.404 188.01 172.697 188.303C172.99 188.596 173.464 188.596 173.757 188.303L178.53 183.53ZM134 183.75H178V182.25H134V183.75Z" fill="#6D62F6"/>
<defs>
<linearGradient id="paint0_linear_5872_122914" x1="230" y1="32" x2="230" y2="160" gradientUnits="userSpaceOnUse">
<stop stop-color="#1E2137"/>
<stop offset="1" stop-color="#1B1D30"/>
</linearGradient>
<linearGradient id="paint1_linear_5872_122914" x1="230" y1="166" x2="230" y2="198" gradientUnits="userSpaceOnUse">
<stop stop-color="#1C1F34"/>
<stop offset="1" stop-color="#171B2E"/>
</linearGradient>
</defs>
</svg>
