<svg width="312" height="119" viewBox="0 0 312 119" fill="none" xmlns="http://www.w3.org/2000/svg">
<rect width="312" height="119" rx="16" fill="#131629"/>
<path d="M31 57C31 50.9249 35.9249 46 42 46H176C182.075 46 187 50.9249 187 57V75C187 81.0751 182.075 86 176 86H42C35.9249 86 31 81.0751 31 75V57Z" fill="url(#paint0_linear_5865_121508)"/>
<path d="M31 57C31 50.9249 35.9249 46 42 46H176C182.075 46 187 50.9249 187 57V75C187 81.0751 182.075 86 176 86H42C35.9249 86 31 81.0751 31 75V57Z" stroke="url(#paint1_linear_5865_121508)" stroke-width="2"/>
<path d="M44.996 71V63.139L42.567 64.021L42.091 62.607L46.55 60.99H46.676V71H44.996ZM52.9604 71.21C52.321 71.21 51.7494 71.077 51.2454 70.811C50.7414 70.545 50.3144 70.1763 49.9644 69.705C49.619 69.2337 49.353 68.69 49.1664 68.074C48.9844 67.458 48.8934 66.8 48.8934 66.1C48.8934 65.3953 48.9844 64.735 49.1664 64.119C49.353 63.503 49.619 62.9617 49.9644 62.495C50.3144 62.0237 50.7414 61.655 51.2454 61.389C51.7494 61.123 52.321 60.99 52.9604 60.99C53.5997 60.99 54.169 61.123 54.6684 61.389C55.1724 61.655 55.5994 62.0237 55.9494 62.495C56.2994 62.9617 56.5654 63.503 56.7474 64.119C56.934 64.735 57.0274 65.3953 57.0274 66.1C57.0274 66.8 56.934 67.458 56.7474 68.074C56.5654 68.69 56.2994 69.2337 55.9494 69.705C55.5994 70.1763 55.1724 70.545 54.6684 70.811C54.169 71.077 53.5997 71.21 52.9604 71.21ZM52.9604 69.621C53.3104 69.621 53.6254 69.5417 53.9054 69.383C54.19 69.2243 54.4327 68.9933 54.6334 68.69C54.8387 68.3867 54.995 68.018 55.1024 67.584C55.2144 67.15 55.2704 66.6553 55.2704 66.1C55.2704 65.358 55.1747 64.7257 54.9834 64.203C54.792 63.6757 54.5214 63.2743 54.1714 62.999C53.826 62.719 53.4224 62.579 52.9604 62.579C52.615 62.579 52.3 62.6583 52.0154 62.817C51.7354 62.9757 51.4927 63.2067 51.2874 63.51C51.082 63.8087 50.9234 64.1773 50.8114 64.616C50.704 65.05 50.6504 65.5447 50.6504 66.1C50.6504 66.8373 50.746 67.4697 50.9374 67.997C51.1334 68.5197 51.404 68.921 51.7494 69.201C52.0947 69.481 52.4984 69.621 52.9604 69.621ZM60.7187 71V63.139L58.2897 64.021L57.8137 62.607L62.2727 60.99H62.3987V71H60.7187Z" fill="#E5E6ED"/>
<path d="M166.125 67.4853H159.798C159.379 67.4853 159.042 67.1562 159.042 66.7471C159.042 66.338 159.379 66.0089 159.798 66.0089H166.125C166.817 66.0089 167.381 65.9022 167.827 65.6798C168.273 65.4575 168.601 65.1462 168.81 64.746C169.029 64.3457 169.129 63.8655 169.129 63.3229C169.129 62.8782 169.029 62.4513 168.828 62.0422C168.628 61.6331 168.309 61.2951 167.873 61.0283C167.436 60.7615 166.853 60.6281 166.134 60.6281H162.847V71.9856C162.847 72.4748 162.438 72.875 161.937 72.875C161.436 72.875 161.027 72.4748 161.027 71.9856V59.8365C161.027 59.4452 161.354 59.125 161.755 59.125H166.125C167.172 59.125 168.055 59.3029 168.765 59.6675C169.484 60.0233 170.021 60.5125 170.394 61.1439C170.767 61.7665 170.959 62.4869 170.959 63.2962C170.959 64.1767 170.767 64.9327 170.394 65.5642C170.03 66.1868 169.484 66.667 168.765 66.9961C168.045 67.3252 167.172 67.4853 166.125 67.4853ZM166.006 69.522C166.006 69.9311 165.66 70.2691 165.242 70.2691H159.807C159.388 70.2691 159.042 69.9311 159.042 69.522C159.042 69.1129 159.388 68.7749 159.807 68.7749H165.242C165.66 68.7749 166.006 69.1129 166.006 69.522Z" fill="#4D506C"/>
<path d="M201 57C201 50.9249 205.925 46 212 46H241V86H212C205.925 86 201 81.0751 201 75V57Z" fill="url(#paint2_linear_5865_121508)"/>
<path d="M201 57C201 50.9249 205.925 46 212 46H241V86H212C205.925 86 201 81.0751 201 75V57Z" stroke="url(#paint3_linear_5865_121508)" stroke-width="2"/>
<path d="M226.5 66.9173C227.007 66.9173 227.417 66.5069 227.417 66.0007C227.417 65.4944 227.007 65.084 226.5 65.084H215.5C214.994 65.084 214.584 65.4944 214.584 66.0007C214.584 66.5069 214.994 66.9173 215.5 66.9173H226.5Z" fill="#6F728D"/>
<path d="M241 46H270C276.075 46 281 50.9249 281 57V75C281 81.0751 276.075 86 270 86H241V46Z" fill="url(#paint4_linear_5865_121508)"/>
<path d="M241 46H270C276.075 46 281 50.9249 281 57V75C281 81.0751 276.075 86 270 86H241V46Z" stroke="url(#paint5_linear_5865_121508)" stroke-width="2"/>
<path fill-rule="evenodd" clip-rule="evenodd" d="M261 59.584C261.506 59.584 261.916 59.9944 261.916 60.5007L261.916 65.084H266.5C267.006 65.084 267.416 65.4944 267.416 66.0006C267.416 66.5069 267.006 66.9173 266.5 66.9173H261.916V71.5006C261.916 72.0069 261.506 72.4173 261 72.4173C260.493 72.4173 260.083 72.0069 260.083 71.5006L260.083 66.9173H255.5C254.993 66.9173 254.583 66.5069 254.583 66.0007C254.583 65.4944 254.993 65.084 255.5 65.084H260.083L260.083 60.5007C260.083 59.9944 260.493 59.584 261 59.584Z" fill="#6F728D"/>
<path d="M256 45C256 47.2091 257.791 49 260 49C262.209 49 264 47.2091 264 45C264 42.7909 262.209 41 260 41C257.791 41 256 42.7909 256 45ZM53.4697 45.5303C53.7626 45.8232 54.2374 45.8232 54.5303 45.5303L59.3033 40.7574C59.5962 40.4645 59.5962 39.9896 59.3033 39.6967C59.0104 39.4038 58.5355 39.4038 58.2426 39.6967L54 43.9393L49.7574 39.6967C49.4645 39.4038 48.9896 39.4038 48.6967 39.6967C48.4038 39.9896 48.4038 40.4645 48.6967 40.7574L53.4697 45.5303ZM260.75 45V44H259.25V45H260.75ZM248 31.25H66V32.75H248V31.25ZM53.25 44V45H54.75V44H53.25ZM66 31.25C58.9584 31.25 53.25 36.9584 53.25 44H54.75C54.75 37.7868 59.7868 32.75 66 32.75V31.25ZM260.75 44C260.75 36.9584 255.042 31.25 248 31.25V32.75C254.213 32.75 259.25 37.7868 259.25 44H260.75Z" fill="#6D62F6"/>
<defs>
<linearGradient id="paint0_linear_5865_121508" x1="109" y1="45" x2="109" y2="87" gradientUnits="userSpaceOnUse">
<stop stop-color="#1C1F34"/>
<stop offset="1" stop-color="#171B2E"/>
</linearGradient>
<linearGradient id="paint1_linear_5865_121508" x1="109" y1="45" x2="109" y2="87" gradientUnits="userSpaceOnUse">
<stop stop-color="#282C45"/>
<stop offset="1" stop-color="#21233A"/>
</linearGradient>
<linearGradient id="paint2_linear_5865_121508" x1="221" y1="45" x2="221" y2="87" gradientUnits="userSpaceOnUse">
<stop stop-color="#1C1F34"/>
<stop offset="1" stop-color="#171B2E"/>
</linearGradient>
<linearGradient id="paint3_linear_5865_121508" x1="221" y1="45" x2="221" y2="87" gradientUnits="userSpaceOnUse">
<stop stop-color="#282C45"/>
<stop offset="1" stop-color="#21233A"/>
</linearGradient>
<linearGradient id="paint4_linear_5865_121508" x1="261" y1="45" x2="261" y2="87" gradientUnits="userSpaceOnUse">
<stop stop-color="#171B2E"/>
<stop offset="1" stop-color="#131629"/>
</linearGradient>
<linearGradient id="paint5_linear_5865_121508" x1="261" y1="45" x2="261" y2="87" gradientUnits="userSpaceOnUse">
<stop stop-color="#21233A"/>
<stop offset="1" stop-color="#1C1F34"/>
</linearGradient>
</defs>
</svg>
