<svg width="20" height="20" viewBox="0 0 20 20" fill="none" xmlns="http://www.w3.org/2000/svg">
<g id="List">
<path id="Vector" fill-rule="evenodd" clip-rule="evenodd" d="M3.33333 10.0003C3.33333 8.47533 3.41666 7.30866 3.61666 6.40033C3.81666 5.50866 4.11666 4.92533 4.52499 4.51699C4.93333 4.10866 5.50833 3.80866 6.40833 3.60866C7.30833 3.40866 8.48333 3.32533 10.0083 3.32533C11.5333 3.32533 12.7 3.40866 13.6083 3.60866C14.5 3.80866 15.0833 4.10866 15.4917 4.51699C15.9 4.92533 16.2 5.50033 16.4 6.40033C16.6 7.30033 16.6833 8.47533 16.6833 10.0003C16.6833 11.5253 16.6 12.692 16.4 13.6003C16.2 14.492 15.9 15.0753 15.4917 15.4837C15.0833 15.892 14.5083 16.192 13.6083 16.392C12.7083 16.592 11.5333 16.6753 10.0083 16.6753C8.48333 16.6753 7.31666 16.592 6.40833 16.392C5.51666 16.192 4.93333 15.892 4.52499 15.4837C4.11666 15.0753 3.81666 14.5003 3.61666 13.6003C3.41666 12.7003 3.33333 11.5253 3.33333 10.0003ZM9.99999 1.66699C8.43333 1.66699 7.12499 1.75033 6.04166 1.99199C4.94999 2.23366 4.04166 2.65033 3.34166 3.35033C2.64166 4.05033 2.23333 4.95866 1.98333 6.05033C1.74166 7.13366 1.65833 8.44199 1.65833 10.0087C1.65833 11.5753 1.74166 12.8837 1.98333 13.967C2.22499 15.0587 2.64166 15.967 3.34166 16.667C4.04166 17.367 4.94999 17.7753 6.04166 18.0253C7.12499 18.267 8.43333 18.3503 9.99999 18.3503C11.5667 18.3503 12.875 18.267 13.9583 18.0253C15.05 17.7837 15.9583 17.367 16.6583 16.667C17.3583 15.967 17.7667 15.0587 18.0167 13.967C18.2583 12.8837 18.3417 11.5753 18.3417 10.0087C18.3417 8.44199 18.2583 7.13366 18.0167 6.05033C17.775 4.95866 17.3583 4.05033 16.6583 3.35033C15.9583 2.65033 15.05 2.24199 13.9583 1.99199C12.875 1.75033 11.5667 1.66699 9.99999 1.66699ZM5.83333 6.66699C5.83333 7.12533 6.20833 7.50033 6.66666 7.50033H13.3333C13.7917 7.50033 14.1667 7.12533 14.1667 6.66699C14.1667 6.20866 13.7917 5.83366 13.3333 5.83366H6.66666C6.20833 5.83366 5.83333 6.20866 5.83333 6.66699ZM5.83333 10.0003C5.83333 10.4587 6.20833 10.8337 6.66666 10.8337H13.3333C13.7917 10.8337 14.1667 10.4587 14.1667 10.0003C14.1667 9.54199 13.7917 9.16699 13.3333 9.16699H6.66666C6.20833 9.16699 5.83333 9.54199 5.83333 10.0003ZM14.1667 13.3337C14.1667 13.792 13.7917 14.167 13.3333 14.167H6.66666C6.20833 14.167 5.83333 13.792 5.83333 13.3337C5.83333 12.8753 6.20833 12.5003 6.66666 12.5003H13.3333C13.7917 12.5003 14.1667 12.8753 14.1667 13.3337Z" fill="#E5E6ED"/>
</g>
</svg>
