<svg width="20" height="20" viewBox="0 0 20 20" fill="none" xmlns="http://www.w3.org/2000/svg">
<g id="Settings">
<path id="Vector" fill-rule="evenodd" clip-rule="evenodd" d="M14.4771 2.94318L18.2123 9.56534H18.2206C18.3707 9.82955 18.3707 10.1705 18.2206 10.4432L14.4854 17.0568C14.3353 17.321 14.0352 17.5 13.735 17.5H6.26464C5.95615 17.5 5.66434 17.3381 5.51426 17.0568L1.77906 10.4347C1.62899 10.1705 1.62899 9.82954 1.77906 9.55682L5.50592 2.94318C5.66434 2.67898 5.95615 2.5 6.2563 2.5H13.7267C14.0352 2.5 14.327 2.66193 14.4771 2.94318ZM13.4182 15.3949L16.278 10.3324C16.3947 10.1278 16.3947 9.86364 16.278 9.65909L13.4182 4.59659C13.3015 4.39205 13.0931 4.2642 12.8513 4.2642H7.13174C6.89829 4.2642 6.68151 4.39205 6.56479 4.59659L3.70502 9.66761C3.5883 9.86364 3.5883 10.1278 3.70502 10.3324L6.56479 15.3949C6.68151 15.5994 6.88995 15.7273 7.13174 15.7273H12.8513C13.0847 15.7273 13.3015 15.5994 13.4182 15.3949ZM8.04052 6.53977C8.4574 6.30114 8.98266 6.44602 9.22445 6.86364V6.84659L12.2593 12.2244C12.3677 12.429 12.401 12.6761 12.3427 12.8977C12.2843 13.1193 12.1426 13.3153 11.9341 13.4347C11.8007 13.5199 11.6507 13.554 11.5006 13.554C11.2088 13.554 10.9086 13.4006 10.7502 13.1108L7.71536 7.74148C7.47357 7.31534 7.61531 6.77841 8.03219 6.53977H8.04052Z" fill="#E5E6ED"/>
</g>
</svg>
