<svg width="24" height="24" viewBox="0 0 24 24" fill="none" xmlns="http://www.w3.org/2000/svg">
<g id="Settings">
<path id="Vector" fill-rule="evenodd" clip-rule="evenodd" d="M17.3727 3.53182L21.8549 11.4784H21.8649C22.045 11.7955 22.045 12.2045 21.8649 12.5318L17.3827 20.4682C17.2026 20.7852 16.8424 21 16.4822 21H7.51776C7.14757 21 6.7974 20.8057 6.61731 20.4682L2.13507 12.5216C1.95498 12.2045 1.95498 11.7955 2.13507 11.4682L6.6073 3.53182C6.7974 3.21477 7.14757 3 7.50775 3H16.4722C16.8424 3 17.1926 3.19432 17.3727 3.53182ZM16.1021 18.4739L19.5338 12.3989C19.6738 12.1534 19.6738 11.8364 19.5338 11.5909L16.1021 5.51591C15.962 5.27045 15.7119 5.11705 15.4217 5.11705H8.55828C8.27814 5.11705 8.01801 5.27045 7.87794 5.51591L4.44622 11.6011C4.30615 11.8364 4.30615 12.1534 4.44622 12.3989L7.87794 18.4739C8.01801 18.7193 8.26813 18.8727 8.55828 18.8727H15.4217C15.7018 18.8727 15.962 18.7193 16.1021 18.4739ZM9.64882 7.84773C10.1491 7.56136 10.7794 7.73523 11.0695 8.23636V8.21591L14.7114 14.6693C14.8414 14.9148 14.8814 15.2114 14.8114 15.4773C14.7414 15.7432 14.5713 15.9784 14.3212 16.1216C14.1611 16.2239 13.981 16.2648 13.8009 16.2648C13.4507 16.2648 13.0905 16.0807 12.9004 15.733L9.25863 9.28977C8.96848 8.77841 9.13857 8.13409 9.63882 7.84773H9.64882Z" fill="#6F728D"/>
</g>
</svg>
