<svg width="20" height="20" viewBox="0 0 20 20" fill="none" xmlns="http://www.w3.org/2000/svg">
<path fill-rule="evenodd" clip-rule="evenodd" d="M11.5942 3.64874C12.1533 3.27296 12.8498 3.23442 13.4482 3.52348C14.0466 3.82218 14.4194 4.38104 14.4194 5.03626V14.9609C14.4194 15.6161 14.0564 16.1749 13.4482 16.4736C13.1834 16.5989 12.9087 16.6663 12.6242 16.6663C12.2612 16.6663 11.9081 16.5603 11.5942 16.3484L10.7113 15.7606L10.6426 15.7124C9.29871 14.8356 7.95478 13.978 6.19884 13.872H4.20747C2.81449 13.872 1.66675 12.8025 1.66675 11.4728V8.51468C1.66675 7.18498 2.81449 6.11544 4.20747 6.12507H6.19884C7.94971 6.00978 9.28119 5.15684 10.6309 4.29221L10.6426 4.28469L11.5942 3.64874ZM12.791 14.9609V5.03626H12.8008C12.8008 4.97845 12.7812 4.9399 12.7125 4.911C12.6438 4.87246 12.5948 4.88209 12.5359 4.92063L11.6432 5.51804L11.5648 5.57585H11.555L11.5454 5.58199C10.3018 6.38028 8.88199 7.29174 7.04248 7.58967V12.4171C8.8867 12.7158 10.3091 13.6311 11.5451 14.4405H11.555L11.6334 14.4887L12.5261 15.0765C12.585 15.115 12.634 15.115 12.7027 15.0861C12.7714 15.0572 12.791 15.0187 12.791 14.9609ZM4.20747 7.66676C3.69736 7.66676 3.29516 8.06181 3.29516 8.51468V11.4632C3.29516 11.9257 3.69736 12.3111 4.20747 12.3111H5.40425V7.66676H4.20747ZM15.8319 13.7179C15.4984 13.4288 15.469 12.9278 15.7731 12.6098L15.7633 12.6194C17.0189 11.309 17.0189 9.16026 15.7633 7.84983C15.4494 7.52222 15.4788 7.03081 15.8221 6.74175C16.1557 6.46232 16.6658 6.48159 16.9699 6.79956C17.8527 7.72457 18.3334 8.93865 18.3334 10.2298V10.2876C18.3138 11.5499 17.8331 12.7543 16.9699 13.6601C16.8129 13.8239 16.5873 13.9106 16.3715 13.9106C16.1851 13.9106 15.9889 13.8528 15.8319 13.7179Z" fill="#E5E6ED"/>
</svg>
